<svg xmlns="http://www.w3.org/2000/svg" xmlns:xlink="http://www.w3.org/1999/xlink" viewBox="0 0 512 512" width="512" height="512" preserveAspectRatio="xMidYMid meet" style="width: 100%; height: 100%; transform: translate3d(0px, 0px, 0px); content-visibility: visible;"><defs><clipPath id="__lottie_element_833"><rect width="512" height="512" x="0" y="0"/></clipPath><linearGradient id="__lottie_element_837" spreadMethod="pad" gradientUnits="userSpaceOnUse" x1="-86" y1="167" x2="-98.1259994506836" y2="-48.242000579833984"><stop offset="0%" stop-color="rgb(249,208,33)"/><stop offset="50%" stop-color="rgb(249,184,17)"/><stop offset="100%" stop-color="rgb(249,159,0)"/><stop offset="100%" stop-color="rgb(252,207,128)"/><stop offset="100%" stop-color="rgb(255,255,255)"/></linearGradient><linearGradient id="__lottie_element_856" spreadMethod="pad" gradientUnits="userSpaceOnUse" x1="106.18299865722656" y1="-72.96500396728516" x2="30" y2="-226.01100158691406"><stop offset="27%" stop-color="rgb(255,255,255)" stop-opacity="0"/><stop offset="74%" stop-color="rgb(255,255,255)" stop-opacity="0.5"/><stop offset="100%" stop-color="rgb(255,255,255)" stop-opacity="1"/></linearGradient><linearGradient id="__lottie_element_857" spreadMethod="pad" gradientUnits="userSpaceOnUse" x1="-94" y1="-70" x2="-143.75999450683594" y2="-170.5679931640625"><stop offset="27%" stop-color="rgb(255,255,255)" stop-opacity="0"/><stop offset="74%" stop-color="rgb(255,255,255)" stop-opacity="0.5"/><stop offset="100%" stop-color="rgb(255,255,255)" stop-opacity="1"/></linearGradient></defs><g clip-path="url(#__lottie_element_833)"><g transform="matrix(1,0,0,1,256,256)" opacity="1" style="display: block;"><g opacity="1" transform="matrix(1,0,0,1,0,0)"><path fill="rgb(255,237,105)" fill-opacity="1" d=" M20.808740615844727,-105.98944854736328 C20.808740615844727,-105.98944854736328 -161.69410705566406,-73.62547302246094 -161.69410705566406,-73.62547302246094 C-161.69410705566406,-73.62547302246094 5.39652681350708,2.1556613445281982 5.39652681350708,2.1556613445281982 C5.39652681350708,2.1556613445281982 192.0468292236328,-7.756741523742676 192.0468292236328,-7.756741523742676 C192.0468292236328,-7.756741523742676 20.808740615844727,-105.98944854736328 20.808740615844727,-105.98944854736328z"/><path stroke-linecap="round" stroke-linejoin="round" fill-opacity="0" stroke="rgb(234,130,6)" stroke-opacity="1" stroke-width="9" d=" M20.808740615844727,-105.98944854736328 C20.808740615844727,-105.98944854736328 -161.69410705566406,-73.62547302246094 -161.69410705566406,-73.62547302246094 C-161.69410705566406,-73.62547302246094 5.39652681350708,2.1556613445281982 5.39652681350708,2.1556613445281982 C5.39652681350708,2.1556613445281982 192.0468292236328,-7.756741523742676 192.0468292236328,-7.756741523742676 C192.0468292236328,-7.756741523742676 20.808740615844727,-105.98944854736328 20.808740615844727,-105.98944854736328z"/></g><g opacity="1" transform="matrix(1,0,0,1,0,0)"><path fill="rgb(255,237,105)" fill-opacity="1" d=" M-0.8335559368133545,66.8963851928711 C-0.8335559368133545,66.8963851928711 20.808740615844727,-105.98944854736328 20.808740615844727,-105.98944854736328"/><path stroke-linecap="round" stroke-linejoin="round" fill-opacity="0" stroke="rgb(234,130,6)" stroke-opacity="1" stroke-width="9" d=" M-0.8335559368133545,66.8963851928711 C-0.8335559368133545,66.8963851928711 20.808740615844727,-105.98944854736328 20.808740615844727,-105.98944854736328"/></g><g opacity="1" transform="matrix(1,0,0,1,0,0)"><path fill="url(#__lottie_element_837)" fill-opacity="1" d=" M-166.10171508789062,154.69000244140625 C-166.10171508789062,154.69000244140625 -180.05772399902344,54.923954010009766 -162.08351135253906,-73.19325256347656 C-143.67623901367188,-60.842071533203125 -12.068389892578125,-9.913884162902832 3.3409526348114014,1.5553656816482544 C-11.450369834899902,95.74817657470703 -0.42302748560905457,224.37625122070312 -0.42302748560905457,224.37625122070312 C-0.42302748560905457,224.37625122070312 -166.10171508789062,154.69000244140625 -166.10171508789062,154.69000244140625z"/><path stroke-linecap="round" stroke-linejoin="round" fill-opacity="0" stroke="rgb(234,130,6)" stroke-opacity="1" stroke-width="9" d=" M-166.10171508789062,154.69000244140625 C-166.10171508789062,154.69000244140625 -180.05772399902344,54.923954010009766 -162.08351135253906,-73.19325256347656 C-143.67623901367188,-60.842071533203125 -12.068389892578125,-9.913884162902832 3.3409526348114014,1.5553656816482544 C-11.450369834899902,95.74817657470703 -0.42302748560905457,224.37625122070312 -0.42302748560905457,224.37625122070312 C-0.42302748560905457,224.37625122070312 -166.10171508789062,154.69000244140625 -166.10171508789062,154.69000244140625z"/></g><g opacity="1" transform="matrix(1,0,0,1,0,0)"><path fill="rgb(249,159,0)" fill-opacity="1" d=" M165.2378387451172,152.69000244140625 C165.2378387451172,152.69000244140625 171.8039093017578,81.13072204589844 191.2406768798828,-8.941939353942871 C174.25381469726562,-4.25534200668335 31.881017684936523,-2.294562578201294 3.3409526348114014,1.5553656816482544 C-10.57498836517334,77.36516571044922 -0.42302748560905457,224.37625122070312 -0.42302748560905457,224.37625122070312 C-0.42302748560905457,224.37625122070312 165.2378387451172,152.69000244140625 165.2378387451172,152.69000244140625z"/><path stroke-linecap="round" stroke-linejoin="round" fill-opacity="0" stroke="rgb(234,130,6)" stroke-opacity="1" stroke-width="9" d=" M165.2378387451172,152.69000244140625 C165.2378387451172,152.69000244140625 171.8039093017578,81.13072204589844 191.2406768798828,-8.941939353942871 C174.25381469726562,-4.25534200668335 31.881017684936523,-2.294562578201294 3.3409526348114014,1.5553656816482544 C-10.57498836517334,77.36516571044922 -0.42302748560905457,224.37625122070312 -0.42302748560905457,224.37625122070312 C-0.42302748560905457,224.37625122070312 165.2378387451172,152.69000244140625 165.2378387451172,152.69000244140625z"/></g></g><g transform="matrix(0.9883514046669006,0.1521892100572586,-0.1521892100572586,0.9883514046669006,264.3099365234375,269.23699951171875)" opacity="0.54" style="display: block;"><g opacity="1" transform="matrix(1,0,0,1,0,0)"><path fill="rgb(234,130,6)" fill-opacity="1" d=" M-179.71701049804688,-7.5579938888549805 C-179.71701049804688,-7.5579938888549805 -186.3419952392578,-57.4329948425293 -186.3419952392578,-57.4329948425293 C-186.3419952392578,-57.4329948425293 -5.434985637664795,-11.236953735351562 -5.434985637664795,-11.236953735351562 C-5.434985637664795,-11.236953735351562 -5.434985637664795,39.7850456237793 -5.434985637664795,39.7850456237793 C-5.434985637664795,39.7850456237793 -179.71701049804688,-7.5579938888549805 -179.71701049804688,-7.5579938888549805z"/></g><g opacity="1" transform="matrix(1,0,0,1,0,0)"><path fill="rgb(234,130,6)" fill-opacity="1" d=" M175.03602600097656,-0.6310006976127625 C175.03602600097656,-0.6310006976127625 177.37103271484375,-56.01900863647461 177.37103271484375,-56.01900863647461 C177.37103271484375,-56.01900863647461 -5.434985637664795,-11.236953735351562 -5.434985637664795,-11.236953735351562 C-5.434985637664795,-11.236953735351562 -5.434985637664795,39.7850456237793 -5.434985637664795,39.7850456237793 C-5.434985637664795,39.7850456237793 175.03602600097656,-0.6310006976127625 175.03602600097656,-0.6310006976127625z"/></g></g><g transform="matrix(1,0,0,1,256,256)" opacity="1" style="display: block;"><g opacity="1" transform="matrix(1,0,0,1,0,0)"><path fill="rgb(188,4,4)" fill-opacity="1" d=" M65.80322265625,201.74952697753906 C65.80322265625,201.74952697753906 59.43311309814453,113.8017578125 75.1692886352539,-2.435608148574829 C76.78260803222656,-16.020915985107422 133.79908752441406,-14.390768051147461 131.49403381347656,-5.043811798095703 C112.74618530273438,72.60782623291016 111.6812515258789,181.50323486328125 111.6812515258789,181.50323486328125 C111.6812515258789,181.50323486328125 65.80322265625,201.74952697753906 65.80322265625,201.74952697753906z"/></g><g opacity="1" transform="matrix(1,0,0,1,0,0)"><path fill="rgb(221,5,5)" fill-opacity="1" d=" M-68.56836700439453,201.33706665039062 C-68.56836700439453,201.33706665039062 -78.56536102294922,95.77581024169922 -58.74720001220703,-25.943950653076172 C-58.007999420166016,-30.891582489013672 -106.9358139038086,-53.458980560302734 -107.72172546386719,-46.93516540527344 C-125.6854019165039,114.67103576660156 -112.48896026611328,181.9661865234375 -112.48896026611328,181.9661865234375 C-112.48896026611328,181.9661865234375 -68.56836700439453,201.33706665039062 -68.56836700439453,201.33706665039062z"/></g></g><g transform="matrix(0.9883514046669006,0.1521892100572586,-0.1521892100572586,0.9883514046669006,264.3099365234375,269.23699951171875)" opacity="0.54" style="display: block;"><g opacity="1" transform="matrix(1,0,0,1,0,0)"><path fill="rgb(153,0,0)" fill-opacity="1" d=" M-126.82098388671875,-42.233978271484375 C-126.82098388671875,-42.233978271484375 -75.52098846435547,-29.281967163085938 -75.52098846435547,-29.281967163085938 C-75.52098846435547,-29.281967163085938 -71.31999206542969,21.70503044128418 -71.31999206542969,21.70503044128418 C-71.31999206542969,21.70503044128418 -121.21700286865234,8.650017738342285 -121.21700286865234,8.650017738342285 C-121.21700286865234,8.650017738342285 -126.82098388671875,-42.233978271484375 -126.82098388671875,-42.233978271484375z"/></g><g opacity="1" transform="matrix(1,0,0,1,0,0)"><path fill="rgb(153,0,0)" fill-opacity="1" d=" M119.20700073242188,-40.7719841003418 C119.20700073242188,-40.7719841003418 63.063011169433594,-29.02297019958496 63.063011169433594,-29.02297019958496 C63.063011169433594,-29.02297019958496 65.93800354003906,23.511030197143555 65.93800354003906,23.511030197143555 C65.93800354003906,23.511030197143555 118.37200927734375,11.706019401550293 118.37200927734375,11.706019401550293 C118.37200927734375,11.706019401550293 119.20700073242188,-40.7719841003418 119.20700073242188,-40.7719841003418z"/></g></g><g transform="matrix(1,0,0,1,256,256)" opacity="1" style="display: block;"><g opacity="1" transform="matrix(1,0,0,1,0,0)"><path stroke-linecap="round" stroke-linejoin="round" fill-opacity="0" stroke="rgb(153,0,0)" stroke-opacity="1" stroke-width="9" d=" M65.80322265625,201.74952697753906 C65.80322265625,201.74952697753906 59.43311309814453,113.8017578125 75.1692886352539,-2.435608148574829 C76.78260803222656,-16.020915985107422 133.79908752441406,-14.390768051147461 131.49403381347656,-5.043811798095703 C112.74618530273438,72.60782623291016 111.6812515258789,181.50323486328125 111.6812515258789,181.50323486328125 C111.6812515258789,181.50323486328125 65.80322265625,201.74952697753906 65.80322265625,201.74952697753906z"/></g><g opacity="1" transform="matrix(1,0,0,1,0,0)"><path stroke-linecap="round" stroke-linejoin="round" fill-opacity="0" stroke="rgb(153,0,0)" stroke-opacity="1" stroke-width="9" d=" M-68.56836700439453,201.33706665039062 C-68.56836700439453,201.33706665039062 -78.56536102294922,95.77581024169922 -58.74720001220703,-25.943950653076172 C-58.007999420166016,-30.891582489013672 -106.9358139038086,-53.458980560302734 -107.72172546386719,-46.93516540527344 C-125.6854019165039,114.67103576660156 -112.48896026611328,181.9661865234375 -112.48896026611328,181.9661865234375 C-112.48896026611328,181.9661865234375 -68.56836700439453,201.33706665039062 -68.56836700439453,201.33706665039062z"/></g></g><g transform="matrix(0.9883514046669006,0.1521892100572586,-0.1521892100572586,0.9883514046669006,264.3099365234375,243.73699951171875)" opacity="1" style="display: block;"><g opacity="1" transform="matrix(1,0,0,1,0,0)"><g opacity="1" transform="matrix(1,0,0,1,0,0)"><path fill="rgb(255,237,105)" fill-opacity="1" d=" M0,-83.01802825927734 C0,-83.01802825927734 -197.93600463867188,-57.16400146484375 -197.93600463867188,-57.16400146484375 C-197.93600463867188,-57.16400146484375 -1.4819986820220947,-11.845970153808594 -1.4819986820220947,-11.845970153808594 C-1.4819986820220947,-11.845970153808594 197.93600463867188,-57.16400146484375 197.93600463867188,-57.16400146484375 C197.93600463867188,-57.16400146484375 0,-83.01802825927734 0,-83.01802825927734z"/><path stroke-linecap="round" stroke-linejoin="round" fill-opacity="0" stroke="rgb(234,130,6)" stroke-opacity="1" stroke-width="9" d=" M0,-83.01802825927734 C0,-83.01802825927734 -197.93600463867188,-57.16400146484375 -197.93600463867188,-57.16400146484375 C-197.93600463867188,-57.16400146484375 -1.4819986820220947,-11.845970153808594 -1.4819986820220947,-11.845970153808594 C-1.4819986820220947,-11.845970153808594 197.93600463867188,-57.16400146484375 197.93600463867188,-57.16400146484375 C197.93600463867188,-57.16400146484375 0,-83.01802825927734 0,-83.01802825927734z"/></g><g opacity="1" transform="matrix(1,0,0,1,0,0)"><path fill="rgb(255,217,23)" fill-opacity="1" d=" M-191.31100463867188,-7.289000034332275 C-191.31100463867188,-7.289000034332275 -197.93600463867188,-57.16400146484375 -197.93600463867188,-57.16400146484375 C-197.93600463867188,-57.16400146484375 -1.4819986820220947,-11.845970153808594 -1.4819986820220947,-11.845970153808594 C-1.4819986820220947,-11.845970153808594 -1.4819986820220947,39.176029205322266 -1.4819986820220947,39.176029205322266 C-1.4819986820220947,39.176029205322266 -191.31100463867188,-7.289000034332275 -191.31100463867188,-7.289000034332275z"/><path stroke-linecap="round" stroke-linejoin="round" fill-opacity="0" stroke="rgb(234,130,6)" stroke-opacity="1" stroke-width="9" d=" M-191.31100463867188,-7.289000034332275 C-191.31100463867188,-7.289000034332275 -197.93600463867188,-57.16400146484375 -197.93600463867188,-57.16400146484375 C-197.93600463867188,-57.16400146484375 -1.4819986820220947,-11.845970153808594 -1.4819986820220947,-11.845970153808594 C-1.4819986820220947,-11.845970153808594 -1.4819986820220947,39.176029205322266 -1.4819986820220947,39.176029205322266 C-1.4819986820220947,39.176029205322266 -191.31100463867188,-7.289000034332275 -191.31100463867188,-7.289000034332275z"/></g><g opacity="1" transform="matrix(1,0,0,1,0,0)"><path fill="rgb(255,181,34)" fill-opacity="1" d=" M191.11500549316406,-4.625999927520752 C191.11500549316406,-4.625999927520752 197.93600463867188,-57.16400146484375 197.93600463867188,-57.16400146484375 C197.93600463867188,-57.16400146484375 -1.4819986820220947,-11.845970153808594 -1.4819986820220947,-11.845970153808594 C-1.4819986820220947,-11.845970153808594 -1.4819986820220947,39.176029205322266 -1.4819986820220947,39.176029205322266 C-1.4819986820220947,39.176029205322266 191.11500549316406,-4.625999927520752 191.11500549316406,-4.625999927520752z"/><path stroke-linecap="round" stroke-linejoin="round" fill-opacity="0" stroke="rgb(234,130,6)" stroke-opacity="1" stroke-width="9" d=" M191.11500549316406,-4.625999927520752 C191.11500549316406,-4.625999927520752 197.93600463867188,-57.16400146484375 197.93600463867188,-57.16400146484375 C197.93600463867188,-57.16400146484375 -1.4819986820220947,-11.845970153808594 -1.4819986820220947,-11.845970153808594 C-1.4819986820220947,-11.845970153808594 -1.4819986820220947,39.176029205322266 -1.4819986820220947,39.176029205322266 C-1.4819986820220947,39.176029205322266 191.11500549316406,-4.625999927520752 191.11500549316406,-4.625999927520752z"/></g></g><g opacity="1" transform="matrix(1,0,0,1,0,0)"><g opacity="1" transform="matrix(1,0,0,1,0,0)"><g opacity="1" transform="matrix(1,0,0,1,0,0)"><path fill="rgb(175,8,8)" fill-opacity="1" d=" M-123.56900024414062,-39.122989654541016 C-123.56900024414062,-39.122989654541016 70.58300018310547,-74.35002136230469 70.58300018310547,-74.35002136230469 C70.58300018310547,-74.35002136230469 117.56099700927734,-67.45001220703125 117.56099700927734,-67.45001220703125 C117.56099700927734,-67.45001220703125 -74.99299621582031,-28.159982681274414 -74.99299621582031,-28.159982681274414 C-74.99299621582031,-28.159982681274414 -123.56900024414062,-39.122989654541016 -123.56900024414062,-39.122989654541016z"/><path stroke-linecap="round" stroke-linejoin="round" fill-opacity="0" stroke="rgb(153,0,0)" stroke-opacity="1" stroke-width="9" d=" M-123.56900024414062,-39.122989654541016 C-123.56900024414062,-39.122989654541016 70.58300018310547,-74.35002136230469 70.58300018310547,-74.35002136230469 C70.58300018310547,-74.35002136230469 117.56099700927734,-67.45001220703125 117.56099700927734,-67.45001220703125 C117.56099700927734,-67.45001220703125 -74.99299621582031,-28.159982681274414 -74.99299621582031,-28.159982681274414 C-74.99299621582031,-28.159982681274414 -123.56900024414062,-39.122989654541016 -123.56900024414062,-39.122989654541016z"/></g><g opacity="1" transform="matrix(1,0,0,1,0,0)"><path fill="rgb(201,0,0)" fill-opacity="1" d=" M-68.56900024414062,26.695018768310547 C-68.56900024414062,26.695018768310547 -71.60800170898438,-27.624980926513672 -71.60800170898438,-27.624980926513672 C-71.60800170898438,-27.624980926513672 -123.56900024414062,-39.122989654541016 -123.56900024414062,-39.122989654541016 C-123.56900024414062,-39.122989654541016 -119.95099639892578,14.958008766174316 -119.95099639892578,14.958008766174316 C-119.95099639892578,14.958008766174316 -68.56900024414062,26.695018768310547 -68.56900024414062,26.695018768310547z"/><path stroke-linecap="round" stroke-linejoin="round" fill-opacity="0" stroke="rgb(153,0,0)" stroke-opacity="1" stroke-width="9" d=" M-68.56900024414062,26.695018768310547 C-68.56900024414062,26.695018768310547 -71.60800170898438,-27.624980926513672 -71.60800170898438,-27.624980926513672 C-71.60800170898438,-27.624980926513672 -123.56900024414062,-39.122989654541016 -123.56900024414062,-39.122989654541016 C-123.56900024414062,-39.122989654541016 -119.95099639892578,14.958008766174316 -119.95099639892578,14.958008766174316 C-119.95099639892578,14.958008766174316 -68.56900024414062,26.695018768310547 -68.56900024414062,26.695018768310547z"/></g></g><g opacity="1" transform="matrix(1,0,0,1,0,0)"><g opacity="1" transform="matrix(1,0,0,1,0,0)"><path fill="rgb(175,8,8)" fill-opacity="1" d=" M125.21900177001953,-40.122989654541016 C125.21900177001953,-40.122989654541016 -68.822998046875,-73.85002136230469 -68.822998046875,-73.85002136230469 C-68.822998046875,-73.85002136230469 -115.802001953125,-67.95001220703125 -115.802001953125,-67.95001220703125 C-115.802001953125,-67.95001220703125 67.69400024414062,-27.372982025146484 67.69400024414062,-27.372982025146484 C67.69400024414062,-27.372982025146484 125.21900177001953,-40.122989654541016 125.21900177001953,-40.122989654541016z"/><path stroke-linecap="round" stroke-linejoin="round" fill-opacity="0" stroke="rgb(153,0,0)" stroke-opacity="1" stroke-width="9" d=" M125.21900177001953,-40.122989654541016 C125.21900177001953,-40.122989654541016 -68.822998046875,-73.85002136230469 -68.822998046875,-73.85002136230469 C-68.822998046875,-73.85002136230469 -115.802001953125,-67.95001220703125 -115.802001953125,-67.95001220703125 C-115.802001953125,-67.95001220703125 67.69400024414062,-27.372982025146484 67.69400024414062,-27.372982025146484 C67.69400024414062,-27.372982025146484 125.21900177001953,-40.122989654541016 125.21900177001953,-40.122989654541016z"/></g><g opacity="1" transform="matrix(1,0,0,1,0,0)"><path fill="rgb(188,4,4)" fill-opacity="1" d=" M67.41000366210938,27.38401985168457 C67.41000366210938,27.38401985168457 68.08100128173828,-27.849979400634766 68.08100128173828,-27.849979400634766 C68.08100128173828,-27.849979400634766 125.21900177001953,-40.122989654541016 125.21900177001953,-40.122989654541016 C125.21900177001953,-40.122989654541016 121.09100341796875,15.369010925292969 121.09100341796875,15.369010925292969 C121.09100341796875,15.369010925292969 67.41000366210938,27.38401985168457 67.41000366210938,27.38401985168457z"/><path stroke-linecap="round" stroke-linejoin="round" fill-opacity="0" stroke="rgb(153,0,0)" stroke-opacity="1" stroke-width="9" d=" M67.41000366210938,27.38401985168457 C67.41000366210938,27.38401985168457 68.08100128173828,-27.849979400634766 68.08100128173828,-27.849979400634766 C68.08100128173828,-27.849979400634766 125.21900177001953,-40.122989654541016 125.21900177001953,-40.122989654541016 C125.21900177001953,-40.122989654541016 121.09100341796875,15.369010925292969 121.09100341796875,15.369010925292969 C121.09100341796875,15.369010925292969 67.41000366210938,27.38401985168457 67.41000366210938,27.38401985168457z"/></g></g></g></g><g transform="matrix(0.9883514046669006,0.1521892100572586,-0.1521892100572586,0.9883514046669006,264.2030029296875,244.43153381347656)" opacity="1" style="display: block;"><g opacity="1" transform="matrix(0.9864509701728821,-0.16405639052391052,0.16405639052391052,0.9864509701728821,10.1093168258667,0.4970703125)"><g opacity="1" transform="matrix(1,0,0,1,0,0)"><path fill="rgb(175,0,0)" fill-opacity="1" d=" M16.583999633789062,-50.59199905395508 C16.583999633789062,-50.59199905395508 80.65705871582031,-57.102569580078125 117.97693634033203,-90.80760192871094 C169.8601837158203,-137.50064086914062 159.06689453125,-165.78599548339844 159.06689453125,-165.78599548339844 C159.06689453125,-165.78599548339844 128.962158203125,-181.6853485107422 104.54292297363281,-193.44383239746094 C104.54292297363281,-193.44383239746094 105.73764038085938,-164.80123901367188 71.50126647949219,-122.6681900024414 C36.91130447387695,-80.32210540771484 1.034999966621399,-59.292999267578125 1.034999966621399,-59.292999267578125 C1.034999966621399,-59.292999267578125 16.583999633789062,-50.59199905395508 16.583999633789062,-50.59199905395508z"/><path stroke-linecap="round" stroke-linejoin="round" fill-opacity="0" stroke="rgb(153,0,0)" stroke-opacity="1" stroke-width="9" d=" M16.583999633789062,-50.59199905395508 C16.583999633789062,-50.59199905395508 80.65705871582031,-57.102569580078125 117.97693634033203,-90.80760192871094 C169.8601837158203,-137.50064086914062 159.06689453125,-165.78599548339844 159.06689453125,-165.78599548339844 C159.06689453125,-165.78599548339844 128.962158203125,-181.6853485107422 104.54292297363281,-193.44383239746094 C104.54292297363281,-193.44383239746094 105.73764038085938,-164.80123901367188 71.50126647949219,-122.6681900024414 C36.91130447387695,-80.32210540771484 1.034999966621399,-59.292999267578125 1.034999966621399,-59.292999267578125 C1.034999966621399,-59.292999267578125 16.583999633789062,-50.59199905395508 16.583999633789062,-50.59199905395508z"/></g><g opacity="1" transform="matrix(1,0,0,1,0,0)"><path fill="rgb(255,11,11)" fill-opacity="1" d=" M1.034999966621399,-59.292999267578125 C1.034999966621399,-59.292999267578125 -9.128152847290039,-95.90074157714844 17.83842658996582,-142.40859985351562 C48.624656677246094,-194.4236297607422 103.45140838623047,-195.17063903808594 103.45140838623047,-195.17063903808594 C103.45140838623047,-195.17063903808594 135.33590698242188,-187.79623413085938 158.95346069335938,-166.16078186035156 C158.95346069335938,-166.16078186035156 125.51109313964844,-162.27566528320312 72.52876281738281,-120.36100006103516 C21.845354080200195,-80.27204895019531 10.380000114440918,-51.07600021362305 10.380000114440918,-51.07600021362305 C10.380000114440918,-51.07600021362305 1.034999966621399,-59.292999267578125 1.034999966621399,-59.292999267578125z"/><path stroke-linecap="round" stroke-linejoin="round" fill-opacity="0" stroke="rgb(153,0,0)" stroke-opacity="1" stroke-width="9" d=" M1.034999966621399,-59.292999267578125 C1.034999966621399,-59.292999267578125 -9.128152847290039,-95.90074157714844 17.83842658996582,-142.40859985351562 C48.624656677246094,-194.4236297607422 103.45140838623047,-195.17063903808594 103.45140838623047,-195.17063903808594 C103.45140838623047,-195.17063903808594 135.33590698242188,-187.79623413085938 158.95346069335938,-166.16078186035156 C158.95346069335938,-166.16078186035156 125.51109313964844,-162.27566528320312 72.52876281738281,-120.36100006103516 C21.845354080200195,-80.27204895019531 10.380000114440918,-51.07600021362305 10.380000114440918,-51.07600021362305 C10.380000114440918,-51.07600021362305 1.034999966621399,-59.292999267578125 1.034999966621399,-59.292999267578125z"/></g><g opacity="1" transform="matrix(1,0,0,1,0,0)"><path fill="url(#__lottie_element_856)" fill-opacity="1" d=" M19.28133201599121,-131.10691833496094 C19.28133201599121,-131.10691833496094 24.08234214782715,-148.18136596679688 48.9970817565918,-168.21661376953125 C62.174224853515625,-178.30743408203125 79.27808380126953,-182.70994567871094 79.27808380126953,-182.70994567871094 C79.27808380126953,-182.70994567871094 85.42889404296875,-167.53773498535156 114.38127136230469,-156.8096923828125 C114.38127136230469,-156.8096923828125 93.32662200927734,-148.8231658935547 72.84213256835938,-130.85682678222656 C52.35764694213867,-112.8905029296875 44.63383102416992,-105.56053924560547 44.63383102416992,-105.56053924560547 C44.63383102416992,-105.56053924560547 36.9699821472168,-132.62474060058594 19.28133201599121,-131.10691833496094z"/></g></g><g opacity="1" transform="matrix(0.9864509701728821,0.16405639052391052,-0.16405639052391052,0.9864509701728821,-11.812942504882812,0.6031417846679688)"><g opacity="1" transform="matrix(1,0,0,1,0,0)"><path fill="rgb(175,0,0)" fill-opacity="1" d=" M-25.192480087280273,-74.5281982421875 C-25.192480087280273,-74.5281982421875 -4.781000137329102,-64.73899841308594 -4.781000137329102,-64.73899841308594 C-4.781000137329102,-64.73899841308594 -10.047310829162598,-88.5844955444336 -17.611536026000977,-133.0061798095703 C-25.32977294921875,-177.6263885498047 -74.0027084350586,-217.95040893554688 -115.3646011352539,-201.28477478027344 C-115.3646011352539,-201.28477478027344 -134.46168518066406,-176.34744262695312 -154.0396728515625,-148.87025451660156 C-154.0396728515625,-148.87025451660156 -136.8089599609375,-165.9658966064453 -102.19657897949219,-154.95066833496094 C-55.78536605834961,-140.24530029296875 -25.192480087280273,-74.5281982421875 -25.192480087280273,-74.5281982421875z"/><path stroke-linecap="round" stroke-linejoin="round" fill-opacity="0" stroke="rgb(153,0,0)" stroke-opacity="1" stroke-width="9" d=" M-25.192480087280273,-74.5281982421875 C-25.192480087280273,-74.5281982421875 -4.781000137329102,-64.73899841308594 -4.781000137329102,-64.73899841308594 C-4.781000137329102,-64.73899841308594 -10.047310829162598,-88.5844955444336 -17.611536026000977,-133.0061798095703 C-25.32977294921875,-177.6263885498047 -74.0027084350586,-217.95040893554688 -115.3646011352539,-201.28477478027344 C-115.3646011352539,-201.28477478027344 -134.46168518066406,-176.34744262695312 -154.0396728515625,-148.87025451660156 C-154.0396728515625,-148.87025451660156 -136.8089599609375,-165.9658966064453 -102.19657897949219,-154.95066833496094 C-55.78536605834961,-140.24530029296875 -25.192480087280273,-74.5281982421875 -25.192480087280273,-74.5281982421875z"/></g><g opacity="1" transform="matrix(1,0,0,1,0,0)"><path fill="rgb(255,11,11)" fill-opacity="1" d=" M-4.781000137329102,-64.73899841308594 C-4.781000137329102,-64.73899841308594 -12.397464752197266,-78.45800018310547 -46.82425308227539,-104.53741455078125 C-81.71273040771484,-130.879638671875 -117.01634979248047,-160.6172637939453 -115.3270034790039,-201.30223083496094 C-115.3270034790039,-201.30223083496094 -134.12376403808594,-186.9493865966797 -156.06764221191406,-146.8575439453125 C-156.06764221191406,-146.8575439453125 -153.16201782226562,-106.19486999511719 -118.84535217285156,-86.3872299194336 C-80.29527282714844,-63.80998992919922 -47.069576263427734,-71.35362243652344 -4.781000137329102,-64.73899841308594z"/><path stroke-linecap="round" stroke-linejoin="round" fill-opacity="0" stroke="rgb(153,0,0)" stroke-opacity="1" stroke-width="9" d=" M-4.781000137329102,-64.73899841308594 C-4.781000137329102,-64.73899841308594 -12.397464752197266,-78.45800018310547 -46.82425308227539,-104.53741455078125 C-81.71273040771484,-130.879638671875 -117.01634979248047,-160.6172637939453 -115.3270034790039,-201.30223083496094 C-115.3270034790039,-201.30223083496094 -134.12376403808594,-186.9493865966797 -156.06764221191406,-146.8575439453125 C-156.06764221191406,-146.8575439453125 -153.16201782226562,-106.19486999511719 -118.84535217285156,-86.3872299194336 C-80.29527282714844,-63.80998992919922 -47.069576263427734,-71.35362243652344 -4.781000137329102,-64.73899841308594z"/></g><g opacity="1" transform="matrix(1,0,0,1,0,0)"><path fill="url(#__lottie_element_857)" fill-opacity="1" d=" M-139.12860107421875,-113.13116455078125 C-139.12860107421875,-113.13116455078125 -113.41572570800781,-121.33353424072266 -104.92839813232422,-148.90573120117188 C-104.92839813232422,-148.90573120117188 -96.59335327148438,-130.3768310546875 -64.09886169433594,-109.95833587646484 C-64.09886169433594,-109.95833587646484 -90.00074005126953,-110.00835418701172 -95.8814926147461,-83.70428466796875 C-95.8814926147461,-83.70428466796875 -126.4272232055664,-89.94857025146484 -139.12860107421875,-113.13116455078125z"/></g></g><g opacity="1" transform="matrix(1,0,0,1,0,0)"><g opacity="1" transform="matrix(0.9859135746955872,-0.16725541651248932,0.16725541651248932,0.9859135746955872,10.176189422607422,0.8273696899414062)"><path fill="rgb(255,11,11)" fill-opacity="1" d=" M5.52400016784668,-54.275001525878906 C5.52400016784668,-54.275001525878906 33.830867767333984,-37.26354217529297 58.74164962768555,-26.425640106201172 C92.9465103149414,-12.231911659240723 128.98199462890625,-5.240649700164795 128.98199462890625,-5.240649700164795 C128.98199462890625,-5.240649700164795 138.31117248535156,-46.94856643676758 143.4315948486328,-63.950809478759766 C143.4315948486328,-63.950809478759766 114.51841735839844,-53.36838912963867 89.78140258789062,-56.471370697021484 C63.946128845214844,-60.244606018066406 23.1270751953125,-58.32040023803711 -2.4947726726531982,-63.91227722167969 C-2.4947726726531982,-63.91227722167969 5.52400016784668,-54.275001525878906 5.52400016784668,-54.275001525878906z"/><path stroke-linecap="round" stroke-linejoin="round" fill-opacity="0" stroke="rgb(153,0,0)" stroke-opacity="1" stroke-width="9" d=" M5.52400016784668,-54.275001525878906 C5.52400016784668,-54.275001525878906 33.830867767333984,-37.26354217529297 58.74164962768555,-26.425640106201172 C92.9465103149414,-12.231911659240723 128.98199462890625,-5.240649700164795 128.98199462890625,-5.240649700164795 C128.98199462890625,-5.240649700164795 138.31117248535156,-46.94856643676758 143.4315948486328,-63.950809478759766 C143.4315948486328,-63.950809478759766 114.51841735839844,-53.36838912963867 89.78140258789062,-56.471370697021484 C63.946128845214844,-60.244606018066406 23.1270751953125,-58.32040023803711 -2.4947726726531982,-63.91227722167969 C-2.4947726726531982,-63.91227722167969 5.52400016784668,-54.275001525878906 5.52400016784668,-54.275001525878906z"/></g><g opacity="1" transform="matrix(0.9859135746955872,0.16725541651248932,-0.16725541651248932,0.9859135746955872,-10.971097946166992,1.2657470703125)"><path fill="rgb(255,11,11)" fill-opacity="1" d=" M0.7379999756813049,-61.76100158691406 C0.7379999756813049,-61.76100158691406 -25.601619720458984,-47.883750915527344 -54.57521057128906,-27.614625930786133 C-85.45877075195312,-6.242398262023926 -131.63963317871094,-9.859031677246094 -131.63963317871094,-9.859031677246094 C-131.63963317871094,-9.859031677246094 -130.61277770996094,-27.367156982421875 -134.78509521484375,-34.40138244628906 C-140.2279510498047,-45.783599853515625 -150.74667358398438,-54.568729400634766 -150.74667358398438,-54.568729400634766 C-150.74667358398438,-54.568729400634766 -130.6651153564453,-51.753021240234375 -80.7573471069336,-57.170589447021484 C-33.000274658203125,-62.435420989990234 -11.393519401550293,-70.26943969726562 -11.393519401550293,-70.26943969726562 C-11.393519401550293,-70.26943969726562 0.7379999756813049,-61.76100158691406 0.7379999756813049,-61.76100158691406z"/><path stroke-linecap="round" stroke-linejoin="round" fill-opacity="0" stroke="rgb(153,0,0)" stroke-opacity="1" stroke-width="9" d=" M0.7379999756813049,-61.76100158691406 C0.7379999756813049,-61.76100158691406 -25.601619720458984,-47.883750915527344 -54.57521057128906,-27.614625930786133 C-85.45877075195312,-6.242398262023926 -131.63963317871094,-9.859031677246094 -131.63963317871094,-9.859031677246094 C-131.63963317871094,-9.859031677246094 -130.61277770996094,-27.367156982421875 -134.78509521484375,-34.40138244628906 C-140.2279510498047,-45.783599853515625 -150.74667358398438,-54.568729400634766 -150.74667358398438,-54.568729400634766 C-150.74667358398438,-54.568729400634766 -130.6651153564453,-51.753021240234375 -80.7573471069336,-57.170589447021484 C-33.000274658203125,-62.435420989990234 -11.393519401550293,-70.26943969726562 -11.393519401550293,-70.26943969726562 C-11.393519401550293,-70.26943969726562 0.7379999756813049,-61.76100158691406 0.7379999756813049,-61.76100158691406z"/></g><g opacity="1" transform="matrix(1,0,0,1,0,0)"><path fill="rgb(255,11,11)" fill-opacity="1" d=" M-2.75600004196167,-85.38500213623047 C-2.75600004196167,-85.38500213623047 -7.418000221252441,-68.27300262451172 16.583999633789062,-50.59199905395508 C16.583999633789062,-50.59199905395508 11.131999969482422,-39.367000579833984 -13.605999946594238,-52.94499969482422 C-13.605999946594238,-52.94499969482422 -19.900999069213867,-57.59600067138672 -15.807999610900879,-78.08000183105469 C-15.807999610900879,-78.08000183105469 -15.355999946594238,-83.87100219726562 -2.75600004196167,-85.38500213623047z"/><path stroke-linecap="round" stroke-linejoin="round" fill-opacity="0" stroke="rgb(153,0,0)" stroke-opacity="1" stroke-width="9" d=" M-2.75600004196167,-85.38500213623047 C-2.75600004196167,-85.38500213623047 -7.418000221252441,-68.27300262451172 16.583999633789062,-50.59199905395508 C16.583999633789062,-50.59199905395508 11.131999969482422,-39.367000579833984 -13.605999946594238,-52.94499969482422 C-13.605999946594238,-52.94499969482422 -19.900999069213867,-57.59600067138672 -15.807999610900879,-78.08000183105469 C-15.807999610900879,-78.08000183105469 -15.355999946594238,-83.87100219726562 -2.75600004196167,-85.38500213623047z"/></g></g></g></g></svg>