<svg xmlns="http://www.w3.org/2000/svg" viewBox="0 0 512 512" width="512" height="512" preserveAspectRatio="xMidYMid meet" style="width: 100%; height: 100%; transform: translate3d(0px, 0px, 0px);"><defs><clipPath id="__lottie_element_976"><rect width="512" height="512" x="0" y="0"></rect></clipPath><linearGradient id="__lottie_element_992" spreadMethod="pad" gradientUnits="userSpaceOnUse" x1="-112.24800109863281" y1="52.72800064086914" x2="-295.2619934082031" y2="27.94099998474121"><stop offset="0%" stop-color="rgb(255,0,0)"></stop><stop offset="13%" stop-color="rgb(255,118,0)"></stop><stop offset="25%" stop-color="rgb(255,235,0)"></stop><stop offset="38%" stop-color="rgb(161,236,0)"></stop><stop offset="50%" stop-color="rgb(67,236,0)"></stop><stop offset="63%" stop-color="rgb(94,118,128)"></stop><stop offset="75%" stop-color="rgb(121,0,255)"></stop><stop offset="88%" stop-color="rgb(188,0,128)"></stop><stop offset="100%" stop-color="rgb(255,0,0)"></stop></linearGradient><linearGradient id="__lottie_element_993" spreadMethod="pad" gradientUnits="userSpaceOnUse" x1="119.31900024414062" y1="70.11599731445312" x2="-98.0459976196289" y2="48.46500015258789"><stop offset="0%" stop-color="rgb(255,0,0)" stop-opacity="1"></stop><stop offset="13%" stop-color="rgb(255,114,0)" stop-opacity="1"></stop><stop offset="25%" stop-color="rgb(255,229,0)" stop-opacity="1"></stop><stop offset="38%" stop-color="rgb(162,220,0)" stop-opacity="1"></stop><stop offset="50%" stop-color="rgb(70,211,0)" stop-opacity="1"></stop><stop offset="63%" stop-color="rgb(95,106,128)" stop-opacity="1"></stop><stop offset="75%" stop-color="rgb(121,0,255)" stop-opacity="1"></stop><stop offset="88%" stop-color="rgb(188,0,128)" stop-opacity="0.5"></stop><stop offset="100%" stop-color="rgb(255,0,0)" stop-opacity="0"></stop></linearGradient><linearGradient id="__lottie_element_994" spreadMethod="pad" gradientUnits="userSpaceOnUse" x1="-112.24800109863281" y1="52.72800064086914" x2="-295.2619934082031" y2="27.94099998474121"><stop offset="0%" stop-color="rgb(80,0,0)"></stop><stop offset="17%" stop-color="rgb(100,41,1)"></stop><stop offset="25%" stop-color="rgb(121,82,1)"></stop><stop offset="38%" stop-color="rgb(61,81,1)"></stop><stop offset="50%" stop-color="rgb(1,80,0)"></stop><stop offset="63%" stop-color="rgb(28,40,40)"></stop><stop offset="75%" stop-color="rgb(54,0,80)"></stop><stop offset="88%" stop-color="rgb(80,0,40)"></stop><stop offset="100%" stop-color="rgb(106,0,0)"></stop></linearGradient><linearGradient id="__lottie_element_995" spreadMethod="pad" gradientUnits="userSpaceOnUse" x1="119.31900024414062" y1="70.11599731445312" x2="-98.0459976196289" y2="48.46500015258789"><stop offset="0%" stop-color="rgb(80,0,0)"></stop><stop offset="17%" stop-color="rgb(100,41,1)"></stop><stop offset="25%" stop-color="rgb(121,82,1)"></stop><stop offset="38%" stop-color="rgb(61,81,1)"></stop><stop offset="50%" stop-color="rgb(1,80,0)"></stop><stop offset="63%" stop-color="rgb(28,40,40)"></stop><stop offset="75%" stop-color="rgb(54,0,80)"></stop><stop offset="88%" stop-color="rgb(80,0,40)"></stop><stop offset="100%" stop-color="rgb(106,0,0)"></stop></linearGradient><mask id="__lottie_element_997"><path stroke="url(#__lottie_element_996)" stroke-linecap="round" stroke-linejoin="round" stroke-width="7" d=" M26.190000534057617,169.47900390625 C-62.6510009765625,149.04400634765625 -106.74199676513672,58.12200164794922 -79.60900115966797,16.273000717163086 C-52.47600173950195,-25.576000213623047 -3.2699999809265137,-4.421999931335449 7.767000198364258,10.293999671936035 C34.439998626708984,-40.75199890136719 75.75599670410156,-24.618999481201172 90.47200012207031,4.813000202178955 C105.18800354003906,34.244998931884766 108.0479965209961,111.53399658203125 26.190000534057617,169.47900390625z"></path></mask><linearGradient id="__lottie_element_996" spreadMethod="pad" gradientUnits="userSpaceOnUse" x1="119.31900024414062" y1="70.11599731445312" x2="-98.0459976196289" y2="48.46500015258789"><stop stop-color="rgb(255,255,255)" offset="0%" stop-opacity="1"></stop><stop stop-color="rgb(255,255,255)" offset="13%" stop-opacity="1"></stop><stop stop-color="rgb(255,255,255)" offset="25%" stop-opacity="1"></stop><stop stop-color="rgb(255,255,255)" offset="38%" stop-opacity="1"></stop><stop stop-color="rgb(255,255,255)" offset="50%" stop-opacity="1"></stop><stop stop-color="rgb(255,255,255)" offset="63%" stop-opacity="1"></stop><stop stop-color="rgb(255,255,255)" offset="75%" stop-opacity="1"></stop><stop stop-color="rgb(255,255,255)" offset="88%" stop-opacity="0.5"></stop><stop stop-color="rgb(255,255,255)" offset="100%" stop-opacity="0"></stop></linearGradient><linearGradient id="__lottie_element_1008" spreadMethod="pad" gradientUnits="userSpaceOnUse" x1="31.64699935913086" y1="-101.95999908447266" x2="26.04400062561035" y2="-183.1959991455078"><stop offset="0%" stop-color="rgb(177,211,226)"></stop><stop offset="22%" stop-color="rgb(216,233,240)"></stop><stop offset="44%" stop-color="rgb(255,255,255)"></stop></linearGradient><linearGradient id="__lottie_element_1011" spreadMethod="pad" gradientUnits="userSpaceOnUse" x1="-78.10199737548828" y1="-130.72999572753906" x2="-89.5479965209961" y2="-142.625"><stop offset="0%" stop-color="rgb(0,121,141)"></stop><stop offset="50%" stop-color="rgb(0,60,70)"></stop><stop offset="100%" stop-color="rgb(0,0,0)"></stop></linearGradient><linearGradient id="__lottie_element_1012" spreadMethod="pad" gradientUnits="userSpaceOnUse" x1="-66.83699798583984" y1="-112.21399688720703" x2="-77.21600341796875" y2="-123.62000274658203"><stop offset="0%" stop-color="rgb(0,121,141)"></stop><stop offset="50%" stop-color="rgb(0,60,70)"></stop><stop offset="100%" stop-color="rgb(0,0,0)"></stop></linearGradient><linearGradient id="__lottie_element_1013" spreadMethod="pad" gradientUnits="userSpaceOnUse" x1="-79.39399719238281" y1="-110.26899719238281" x2="-90.44499969482422" y2="-121.13999938964844"><stop offset="0%" stop-color="rgb(0,121,141)"></stop><stop offset="50%" stop-color="rgb(0,60,70)"></stop><stop offset="100%" stop-color="rgb(0,0,0)"></stop></linearGradient><linearGradient id="__lottie_element_1014" spreadMethod="pad" gradientUnits="userSpaceOnUse" x1="-66.18900299072266" y1="-104.68599700927734" x2="-98.40599822998047" y2="-144.04800415039062"><stop offset="0%" stop-color="rgb(0,121,141)"></stop><stop offset="50%" stop-color="rgb(0,60,70)"></stop><stop offset="100%" stop-color="rgb(0,0,0)"></stop></linearGradient><linearGradient id="__lottie_element_1015" spreadMethod="pad" gradientUnits="userSpaceOnUse" x1="-101.61599731445312" y1="-149.7570037841797" x2="-61.803001403808594" y2="-99.05999755859375"><stop offset="0%" stop-color="rgb(0,121,141)"></stop><stop offset="50%" stop-color="rgb(0,60,70)"></stop><stop offset="100%" stop-color="rgb(0,0,0)"></stop></linearGradient><radialGradient id="__lottie_element_1019" spreadMethod="pad" gradientUnits="userSpaceOnUse" cx="-19.53700065612793" cy="-60.95000076293945" r="27.714890395957525" fx="-19.53700065612793" fy="-60.95000076293945"><stop offset="0%" stop-color="rgb(255,168,168)"></stop><stop offset="50%" stop-color="rgb(255,84,84)"></stop><stop offset="100%" stop-color="rgb(255,0,0)"></stop></radialGradient><linearGradient id="__lottie_element_1024" spreadMethod="pad" gradientUnits="userSpaceOnUse" x1="-76.35299682617188" y1="-93.95999908447266" x2="-81.95600128173828" y2="-175.1959991455078"><stop offset="0%" stop-color="rgb(177,211,226)"></stop><stop offset="22%" stop-color="rgb(216,233,240)"></stop><stop offset="44%" stop-color="rgb(255,255,255)"></stop></linearGradient><linearGradient id="__lottie_element_1027" spreadMethod="pad" gradientUnits="userSpaceOnUse" x1="-79.7959976196289" y1="-131.03700256347656" x2="-89.5479965209961" y2="-142.625"><stop offset="0%" stop-color="rgb(0,121,141)"></stop><stop offset="50%" stop-color="rgb(0,60,70)"></stop><stop offset="100%" stop-color="rgb(0,0,0)"></stop></linearGradient><linearGradient id="__lottie_element_1028" spreadMethod="pad" gradientUnits="userSpaceOnUse" x1="-66.83699798583984" y1="-112.21399688720703" x2="-77.21600341796875" y2="-123.62000274658203"><stop offset="0%" stop-color="rgb(0,121,141)"></stop><stop offset="50%" stop-color="rgb(0,60,70)"></stop><stop offset="100%" stop-color="rgb(0,0,0)"></stop></linearGradient><linearGradient id="__lottie_element_1029" spreadMethod="pad" gradientUnits="userSpaceOnUse" x1="-90.13600158691406" y1="-111.57099914550781" x2="-100.8270034790039" y2="-123.6780014038086"><stop offset="0%" stop-color="rgb(0,121,141)"></stop><stop offset="50%" stop-color="rgb(0,60,70)"></stop><stop offset="100%" stop-color="rgb(0,0,0)"></stop></linearGradient><linearGradient id="__lottie_element_1030" spreadMethod="pad" gradientUnits="userSpaceOnUse" x1="-66.18900299072266" y1="-104.68599700927734" x2="-98.40599822998047" y2="-144.04800415039062"><stop offset="0%" stop-color="rgb(0,121,141)"></stop><stop offset="50%" stop-color="rgb(0,60,70)"></stop><stop offset="100%" stop-color="rgb(0,0,0)"></stop></linearGradient><linearGradient id="__lottie_element_1031" spreadMethod="pad" gradientUnits="userSpaceOnUse" x1="-101.61599731445312" y1="-149.7570037841797" x2="-61.803001403808594" y2="-99.05999755859375"><stop offset="0%" stop-color="rgb(0,121,141)"></stop><stop offset="50%" stop-color="rgb(0,60,70)"></stop><stop offset="100%" stop-color="rgb(0,0,0)"></stop></linearGradient></defs><g clip-path="url(#__lottie_element_976)"><g transform="matrix(0.9999599456787109,0.0002443363191559911,-0.000244355876930058,1.000040054321289,256.0405578613281,256.00665283203125)" opacity="1" style="display: block;"><g opacity="1" transform="matrix(1,0,0,1,0,0)"><g opacity="1" transform="matrix(1,0,0,1,0,0)"><path fill="rgb(86,161,45)" fill-opacity="1" d=" M40.45000076293945,137.25399780273438 C81.93199920654297,133.51699829101562 136.8679962158203,157.4340057373047 169.0070037841797,172.00900268554688 C201.14599609375,186.58399963378906 216.09500122070312,176.86700439453125 231.04299926757812,102.87200164794922 C242.70899963378906,45.124000549316406 201.79400634765625,49.99599838256836 191.42999267578125,77.45999908447266 C183.95599365234375,97.26699829101562 178.35000610351562,122.67900085449219 178.35000610351562,122.67900085449219 C124.16200256347656,94.2770004272461 50.16699981689453,100.62999725341797 50.16699981689453,100.62999725341797"></path><path stroke-linecap="round" stroke-linejoin="round" fill-opacity="0" stroke="rgb(22,62,0)" stroke-opacity="1" stroke-width="7" d=" M40.45000076293945,137.25399780273438 C81.93199920654297,133.51699829101562 136.8679962158203,157.4340057373047 169.0070037841797,172.00900268554688 C201.14599609375,186.58399963378906 216.09500122070312,176.86700439453125 231.04299926757812,102.87200164794922 C242.70899963378906,45.124000549316406 201.79400634765625,49.99599838256836 191.42999267578125,77.45999908447266 C183.95599365234375,97.26699829101562 178.35000610351562,122.67900085449219 178.35000610351562,122.67900085449219 C124.16200256347656,94.2770004272461 50.16699981689453,100.62999725341797 50.16699981689453,100.62999725341797"></path><path stroke-linecap="round" stroke-linejoin="round" fill-opacity="0" stroke-dasharray=" 2 7" stroke-dashoffset="0" stroke="rgb(22,62,0)" stroke-opacity="1" stroke-width="7" d=" M40.45000076293945,137.25399780273438 C81.93199920654297,133.51699829101562 136.8679962158203,157.4340057373047 169.0070037841797,172.00900268554688 C201.14599609375,186.58399963378906 216.09500122070312,176.86700439453125 231.04299926757812,102.87200164794922 C242.70899963378906,45.124000549316406 201.79400634765625,49.99599838256836 191.42999267578125,77.45999908447266 C183.95599365234375,97.26699829101562 178.35000610351562,122.67900085449219 178.35000610351562,122.67900085449219 C124.16200256347656,94.2770004272461 50.16699981689453,100.62999725341797 50.16699981689453,100.62999725341797"></path></g></g></g><g transform="matrix(0.9999599456787109,0.0002443363191559911,-0.000244355876930058,1.000040054321289,256.0405578613281,256.00665283203125)" opacity="0.66" style="display: block;"><g opacity="1" transform="matrix(1,0,0,1,0,0)"><g opacity="0.5" transform="matrix(1,0,0,1,0,0)"><path fill="rgb(22,62,0)" fill-opacity="1" d=" M97.26100158691406,143.01600646972656 C97.9540023803711,123.60099792480469 97.95500183105469,108.34600067138672 118.06300354003906,104.87899780273438 C85.4739990234375,95.1709976196289 61.89799880981445,100.0250015258789 61.89799880981445,100.0250015258789 C61.89799880981445,100.0250015258789 55.65700149536133,133.30799865722656 55.65700149536133,133.30799865722656 C55.65700149536133,133.30799865722656 97.26100158691406,143.01600646972656 97.26100158691406,143.01600646972656z"></path></g></g></g><g transform="matrix(0.9999599456787109,0.0002443363191559911,-0.000244355876930058,1.000040054321289,256.04058837890625,256.0063781738281)" opacity="1" style="display: block;"><g opacity="1" transform="matrix(1,0,0,1,0,0)"><path fill="rgb(86,161,45)" fill-opacity="1" d=" M54.09400177001953,-37.25400161743164 C104.38899993896484,-41.15999984741211 139.66099548339844,-2.4560000896453857 124.37000274658203,22.243999481201172 C113.55999755859375,39.707000732421875 41.88600158691406,25.24799919128418 41.88600158691406,25.24799919128418"></path><path stroke-linecap="round" stroke-linejoin="round" fill-opacity="0" stroke="rgb(21,61,0)" stroke-opacity="1" stroke-width="7" d=" M54.09400177001953,-37.25400161743164 C104.38899993896484,-41.15999984741211 139.66099548339844,-2.4560000896453857 124.37000274658203,22.243999481201172 C113.55999755859375,39.707000732421875 41.88600158691406,25.24799919128418 41.88600158691406,25.24799919128418"></path><path stroke-linecap="round" stroke-linejoin="round" fill-opacity="0" stroke-dasharray=" 2 7" stroke-dashoffset="0" stroke="rgb(21,61,0)" stroke-opacity="1" stroke-width="7" d=" M54.09400177001953,-37.25400161743164 C104.38899993896484,-41.15999984741211 139.66099548339844,-2.4560000896453857 124.37000274658203,22.243999481201172 C113.55999755859375,39.707000732421875 41.88600158691406,25.24799919128418 41.88600158691406,25.24799919128418"></path></g></g><g transform="matrix(1,0,0,1,256,256)" opacity="1" style="display: block;"><g opacity="1" transform="matrix(1,0,0,1,0,0)"><path fill="rgb(86,161,45)" fill-opacity="1" d=" M-189.08900451660156,-26.9950008392334 C-203.26100158691406,-63.94300079345703 -202.0800018310547,-88.28900146484375 -188.1540069580078,-118.13099670410156 C-180.30599975585938,-134.947998046875 -175.08900451660156,-142.60400390625 -175.55499267578125,-158.6840057373047 C-176.302001953125,-184.47000122070312 -141.63600158691406,-237.90499877929688 -72.4990005493164,-202.7760009765625 C-45.21799850463867,-239.7729949951172 11.586999893188477,-245.0050048828125 38.49399948120117,-202.7760009765625 C65.4010009765625,-160.5469970703125 65.4010009765625,-100.75199890136719 63.159000396728516,-84.30899810791016 C60.91699981689453,-67.86599731445312 57.12699890136719,-47.750999450683594 59.36899948120117,-34.67100143432617 C94.1729965209961,-1.406000018119812 110.27899932861328,63.02799987792969 85.9020004272461,110.56300354003906 C53.05099868774414,174.6219940185547 -101.27400207519531,189.2480010986328 -140.51400756835938,152.25100708007812 C-179.75399780273438,115.25399780273438 -192.5449981689453,94.44100189208984 -187.68699645996094,56.321998596191406 C-182.82899475097656,18.202999114990234 -178.625,0.28600001335144043 -189.08900451660156,-26.9950008392334z"></path><path stroke-linecap="round" stroke-linejoin="round" fill-opacity="0" stroke="rgb(22,62,0)" stroke-opacity="1" stroke-width="7" d=" M-189.08900451660156,-26.9950008392334 C-203.26100158691406,-63.94300079345703 -202.0800018310547,-88.28900146484375 -188.1540069580078,-118.13099670410156 C-180.30599975585938,-134.947998046875 -175.08900451660156,-142.60400390625 -175.55499267578125,-158.6840057373047 C-176.302001953125,-184.47000122070312 -141.63600158691406,-237.90499877929688 -72.4990005493164,-202.7760009765625 C-45.21799850463867,-239.7729949951172 11.586999893188477,-245.0050048828125 38.49399948120117,-202.7760009765625 C65.4010009765625,-160.5469970703125 65.4010009765625,-100.75199890136719 63.159000396728516,-84.30899810791016 C60.91699981689453,-67.86599731445312 57.12699890136719,-47.750999450683594 59.36899948120117,-34.67100143432617 C94.1729965209961,-1.406000018119812 110.27899932861328,63.02799987792969 85.9020004272461,110.56300354003906 C53.05099868774414,174.6219940185547 -101.27400207519531,189.2480010986328 -140.51400756835938,152.25100708007812 C-179.75399780273438,115.25399780273438 -192.5449981689453,94.44100189208984 -187.68699645996094,56.321998596191406 C-182.82899475097656,18.202999114990234 -178.625,0.28600001335144043 -189.08900451660156,-26.9950008392334z"></path><path stroke-linecap="round" stroke-linejoin="round" fill-opacity="0" stroke-dasharray=" 2 7" stroke-dashoffset="0" stroke="rgb(22,62,0)" stroke-opacity="1" stroke-width="7" d=" M-189.08900451660156,-26.9950008392334 C-203.26100158691406,-63.94300079345703 -202.0800018310547,-88.28900146484375 -188.1540069580078,-118.13099670410156 C-180.30599975585938,-134.947998046875 -175.08900451660156,-142.60400390625 -175.55499267578125,-158.6840057373047 C-176.302001953125,-184.47000122070312 -141.63600158691406,-237.90499877929688 -72.4990005493164,-202.7760009765625 C-45.21799850463867,-239.7729949951172 11.586999893188477,-245.0050048828125 38.49399948120117,-202.7760009765625 C65.4010009765625,-160.5469970703125 65.4010009765625,-100.75199890136719 63.159000396728516,-84.30899810791016 C60.91699981689453,-67.86599731445312 57.12699890136719,-47.750999450683594 59.36899948120117,-34.67100143432617 C94.1729965209961,-1.406000018119812 110.27899932861328,63.02799987792969 85.9020004272461,110.56300354003906 C53.05099868774414,174.6219940185547 -101.27400207519531,189.2480010986328 -140.51400756835938,152.25100708007812 C-179.75399780273438,115.25399780273438 -192.5449981689453,94.44100189208984 -187.68699645996094,56.321998596191406 C-182.82899475097656,18.202999114990234 -178.625,0.28600001335144043 -189.08900451660156,-26.9950008392334z"></path></g></g><g transform="matrix(0.9999599456787109,0.0002443363191559911,-0.000244355876930058,1.000040054321289,256.0415954589844,256.0057373046875)" opacity="0.66" style="display: block;"><g opacity="0.5" transform="matrix(1,0,0,1,0,0)"><path fill="rgb(22,62,0)" fill-opacity="1" d=" M-131.718994140625,-109.4209976196289 C-135.177001953125,-85.21299743652344 -102.8740005493164,-57.349998474121094 -63.91400146484375,-64.09300231933594 C-24.95400047302246,-70.83599853515625 -14.84000015258789,-106.05000305175781 -26.452999114990234,-133.02200317382812 C-38.066001892089844,-159.99400329589844 -127.2239990234375,-140.88800048828125 -131.718994140625,-109.4209976196289z"></path></g></g><g transform="matrix(0.9999599456787109,0.0002443363191559911,-0.000244355876930058,1.000040054321289,256.0415954589844,256.0057373046875)" opacity="0.66" style="display: block;"><g opacity="0.5" transform="matrix(1,0,0,1,0,0)"><path fill="rgb(22,62,0)" fill-opacity="1" d=" M-10.718999862670898,-135.6439971923828 C-16.71299934387207,-93.68699645996094 32.73500061035156,-78.7020034790039 51.465999603271484,-85.81999969482422 C70.1969985961914,-92.93800354003906 69.447998046875,-116.91300201416016 60.832000732421875,-140.13900756835938 C52.215999603271484,-163.36500549316406 -8.288000106811523,-152.66299438476562 -10.718999862670898,-135.6439971923828z"></path></g></g><g transform="matrix(0.9999599456787109,0.0002443363191559911,-0.000244355876930058,1.000040054321289,256.0415954589844,256.0057373046875)" opacity="0.66" style="display: block;"><g opacity="0.5" transform="matrix(1,0,0,1,0,0)"><path fill="rgb(22,62,0)" fill-opacity="1" d=" M-124.89299774169922,-29.429000854492188 C-113.25,8 42.641998291015625,-20.81399917602539 53.94599914550781,-35.03200149536133 C65.25,-49.25 59.8650016784668,-54.89099884033203 59.8650016784668,-54.89099884033203 C59.8650016784668,-54.89099884033203 -124.89299774169922,-29.429000854492188 -124.89299774169922,-29.429000854492188z"></path></g></g><g transform="matrix(0.9999599456787109,0.0002443363191559911,-0.000244355876930058,1.000040054321289,256.0415954589844,256.0057373046875)" opacity="1" style="display: block;"><g opacity="1" transform="matrix(1,0,0,1,0,0)"><g opacity="1" transform="matrix(1,0,0,1,0,0)"><path fill="rgb(255,0,187)" fill-opacity="1" d=" M-132.66700744628906,-50.29199981689453 C-133.4340057373047,-70.27300262451172 -118.91899871826172,-72.2969970703125 -89.51200103759766,-67.96199798583984 C-55.020999908447266,-62.87799835205078 24.597000122070312,-75.32599639892578 47.20500183105469,-92.13200378417969 C61.801998138427734,-102.98300170898438 70.47000122070312,-86.87699890136719 68.60099792480469,-71.00499725341797 C67.8759994506836,-64.84500122070312 67.51300048828125,-55.40800094604492 53.00699996948242,-47.340999603271484 C38.500999450683594,-39.27399826049805 -39.83000183105469,-17.94300079345703 -106.91899871826172,-24.35700035095215 C-128.05999755859375,-26.378000259399414 -132.3040008544922,-40.840999603271484 -132.66700744628906,-50.29199981689453z"></path><path stroke-linecap="round" stroke-linejoin="round" fill-opacity="0" stroke="rgb(174,0,128)" stroke-opacity="1" stroke-width="7" d=" M-132.66700744628906,-50.29199981689453 C-133.4340057373047,-70.27300262451172 -118.91899871826172,-72.2969970703125 -89.51200103759766,-67.96199798583984 C-55.020999908447266,-62.87799835205078 24.597000122070312,-75.32599639892578 47.20500183105469,-92.13200378417969 C61.801998138427734,-102.98300170898438 70.47000122070312,-86.87699890136719 68.60099792480469,-71.00499725341797 C67.8759994506836,-64.84500122070312 67.51300048828125,-55.40800094604492 53.00699996948242,-47.340999603271484 C38.500999450683594,-39.27399826049805 -39.83000183105469,-17.94300079345703 -106.91899871826172,-24.35700035095215 C-128.05999755859375,-26.378000259399414 -132.3040008544922,-40.840999603271484 -132.66700744628906,-50.29199981689453z"></path><path stroke-linecap="round" stroke-linejoin="round" fill-opacity="0" stroke-dasharray=" 2 7" stroke-dashoffset="0" stroke="rgb(174,0,128)" stroke-opacity="1" stroke-width="7" d=" M-132.66700744628906,-50.29199981689453 C-133.4340057373047,-70.27300262451172 -118.91899871826172,-72.2969970703125 -89.51200103759766,-67.96199798583984 C-55.020999908447266,-62.87799835205078 24.597000122070312,-75.32599639892578 47.20500183105469,-92.13200378417969 C61.801998138427734,-102.98300170898438 70.47000122070312,-86.87699890136719 68.60099792480469,-71.00499725341797 C67.8759994506836,-64.84500122070312 67.51300048828125,-55.40800094604492 53.00699996948242,-47.340999603271484 C38.500999450683594,-39.27399826049805 -39.83000183105469,-17.94300079345703 -106.91899871826172,-24.35700035095215 C-128.05999755859375,-26.378000259399414 -132.3040008544922,-40.840999603271484 -132.66700744628906,-50.29199981689453z"></path></g><g opacity="1" transform="matrix(1,0,0,1,0,0)"><path stroke-linecap="round" stroke-linejoin="round" fill-opacity="0" stroke="rgb(174,0,128)" stroke-opacity="1" stroke-width="7" d=" M-114.22000122070312,-47.82099914550781 C-77.59300231933594,-38.742000579833984 52.59600067138672,-52.14400100708008 67.10199737548828,-82.36699676513672"></path><path stroke-linecap="round" stroke-linejoin="round" fill-opacity="0" stroke-dasharray=" 2 7" stroke-dashoffset="0" stroke="rgb(174,0,128)" stroke-opacity="1" stroke-width="7" d=" M-114.22000122070312,-47.82099914550781 C-77.59300231933594,-38.742000579833984 52.59600067138672,-52.14400100708008 67.10199737548828,-82.36699676513672"></path></g><g opacity="1" transform="matrix(1,0,0,1,0,0)"><path stroke-linecap="round" stroke-linejoin="round" fill-opacity="0" stroke-dasharray=" 5 1000" stroke-dashoffset="0" stroke="rgb(174,0,128)" stroke-opacity="1" stroke-width="7" d=" M67.10199737548828,-82.36699676513672 C52.59600067138672,-52.14400100708008 -77.59300231933594,-38.742000579833984 -114.22000122070312,-47.82099914550781"></path></g></g></g><g transform="matrix(0.9999599456787109,0.0002443363191559911,-0.000244355876930058,1.000040054321289,256.0415954589844,256.0057373046875)" opacity="1" style="display: block;"><g opacity="1" transform="matrix(1,0,0,1,0,0)"><path fill="url(#__lottie_element_1024)" fill-opacity="1" d=" M-130.70399475097656,-121.91899871826172 C-133.64599609375,-106.10299682617188 -113.88700103759766,-78.19499969482422 -68.29399871826172,-82.68000030517578 C-22.701000213623047,-87.16500091552734 -22.701000213623047,-128.2729949951172 -27.18600082397461,-140.60499572753906 C-31.67099952697754,-152.93699645996094 -49.981998443603516,-170.5019989013672 -76.51599884033203,-165.27000427246094 C-103.05000305175781,-160.03799438476562 -127.71399688720703,-137.98899841308594 -130.70399475097656,-121.91899871826172z"></path><path stroke-linecap="round" stroke-linejoin="round" fill-opacity="0" stroke="rgb(22,62,0)" stroke-opacity="1" stroke-width="7" d=" M-130.70399475097656,-121.91899871826172 C-133.64599609375,-106.10299682617188 -113.88700103759766,-78.19499969482422 -68.29399871826172,-82.68000030517578 C-22.701000213623047,-87.16500091552734 -22.701000213623047,-128.2729949951172 -27.18600082397461,-140.60499572753906 C-31.67099952697754,-152.93699645996094 -49.981998443603516,-170.5019989013672 -76.51599884033203,-165.27000427246094 C-103.05000305175781,-160.03799438476562 -127.71399688720703,-137.98899841308594 -130.70399475097656,-121.91899871826172z"></path><path stroke-linecap="round" stroke-linejoin="round" fill-opacity="0" stroke-dasharray=" 2 7" stroke-dashoffset="0" stroke="rgb(22,62,0)" stroke-opacity="1" stroke-width="7" d=" M-130.70399475097656,-121.91899871826172 C-133.64599609375,-106.10299682617188 -113.88700103759766,-78.19499969482422 -68.29399871826172,-82.68000030517578 C-22.701000213623047,-87.16500091552734 -22.701000213623047,-128.2729949951172 -27.18600082397461,-140.60499572753906 C-31.67099952697754,-152.93699645996094 -49.981998443603516,-170.5019989013672 -76.51599884033203,-165.27000427246094 C-103.05000305175781,-160.03799438476562 -127.71399688720703,-137.98899841308594 -130.70399475097656,-121.91899871826172z"></path></g></g><g transform="matrix(0.9910672903060913,0.14782722294330597,-0.14720620214939117,0.9870617985725403,239.34832763671875,265.1794738769531)" opacity="1" style="display: block;"><g opacity="1" transform="matrix(1,0,0,1,0,0)"><path fill="rgb(36,69,80)" fill-opacity="1" d=" M-83.63400268554688,-158.59800720214844 C-102.7249984741211,-158.59800720214844 -118.20099639892578,-143.1219940185547 -118.20099639892578,-124.03099822998047 C-118.20099639892578,-104.94000244140625 -102.7249984741211,-89.46299743652344 -83.63400268554688,-89.46299743652344 C-64.54299926757812,-89.46299743652344 -49.066001892089844,-104.94000244140625 -49.066001892089844,-124.03099822998047 C-49.066001892089844,-143.1219940185547 -64.54299926757812,-158.59800720214844 -83.63400268554688,-158.59800720214844z M-91.927001953125,-113.04000091552734 C-94.59100341796875,-111.50199890136719 -97.99700164794922,-112.41400146484375 -99.53500366210938,-115.0780029296875 C-101.072998046875,-117.74199676513672 -100.16000366210938,-121.14800262451172 -97.49600219726562,-122.68599700927734 C-94.83200073242188,-124.2239990234375 -91.427001953125,-123.31099700927734 -89.88899993896484,-120.64700317382812 C-88.35099792480469,-117.98300170898438 -89.26300048828125,-114.5780029296875 -91.927001953125,-113.04000091552734z M-88.875,-137.02999877929688 C-88.875,-139.91799926757812 -86.53399658203125,-142.25900268554688 -83.64600372314453,-142.25900268554688 C-80.75800323486328,-142.25900268554688 -78.41600036621094,-139.91799926757812 -78.41600036621094,-137.02999877929688 C-78.41600036621094,-134.14199829101562 -80.75800323486328,-131.80099487304688 -83.64600372314453,-131.80099487304688 C-86.53399658203125,-131.80099487304688 -88.875,-134.14199829101562 -88.875,-137.02999877929688z M-68.03600311279297,-115.23999786376953 C-69.48500061035156,-112.73100280761719 -72.69300079345703,-111.87100219726562 -75.2020034790039,-113.31999969482422 C-77.71099853515625,-114.76899719238281 -78.57099914550781,-117.97699737548828 -77.12200164794922,-120.48600006103516 C-75.6729965209961,-122.99500274658203 -72.46499633789062,-123.8550033569336 -69.95600128173828,-122.40599822998047 C-67.4469985961914,-120.95700073242188 -66.58699798583984,-117.7490005493164 -68.03600311279297,-115.23999786376953z"></path></g><g opacity="1" transform="matrix(1,0,0,1,0,0)"><g opacity="1" transform="matrix(1,0,0,1,0,0)"><path stroke="url(#__lottie_element_1027)" stroke-linecap="round" stroke-linejoin="round" fill-opacity="0" stroke-opacity="1" stroke-width="5" d=" M-78.33100128173828,-131.71499633789062 C-81.26599884033203,-128.77999877929688 -86.0250015258789,-128.77999877929688 -88.95999908447266,-131.71499633789062 C-91.8949966430664,-134.64999389648438 -91.8949966430664,-139.41000366210938 -88.95999908447266,-142.34500122070312 C-86.0250015258789,-145.27999877929688 -81.26599884033203,-145.27999877929688 -78.33100128173828,-142.34500122070312 C-75.39600372314453,-139.41000366210938 -75.39600372314453,-134.64999389648438 -78.33100128173828,-131.71499633789062z"></path></g></g><g opacity="1" transform="matrix(1,0,0,1,0,0)"><g opacity="1" transform="matrix(1,0,0,1,0,0)"><path stroke="url(#__lottie_element_1028)" stroke-linecap="round" stroke-linejoin="round" fill-opacity="0" stroke-opacity="1" stroke-width="5" d=" M-68.8290023803711,-124.35800170898438 C-72.41600036621094,-126.42900085449219 -77.00299835205078,-125.19999694824219 -79.0739974975586,-121.61299896240234 C-81.1449966430664,-118.0260009765625 -79.91600036621094,-113.43900299072266 -76.3290023803711,-111.36799621582031 C-72.74199676513672,-109.2969970703125 -68.15499877929688,-110.5260009765625 -66.08399963378906,-114.11299896240234 C-64.01300048828125,-117.69999694824219 -65.24199676513672,-122.28700256347656 -68.8290023803711,-124.35800170898438z"></path></g></g><g opacity="1" transform="matrix(1,0,0,1,0,0)"><g opacity="1" transform="matrix(1,0,0,1,0,0)"><path stroke="url(#__lottie_element_1029)" stroke-linecap="round" stroke-linejoin="round" fill-opacity="0" stroke-opacity="1" stroke-width="5" d=" M-88.4800033569336,-122.4739990234375 C-91.0270004272461,-125.91600036621094 -95.88099670410156,-126.64099884033203 -99.322998046875,-124.09400177001953 C-102.76499938964844,-121.5469970703125 -103.48999786376953,-116.69400024414062 -100.94300079345703,-113.25199890136719 C-98.39600372314453,-109.80999755859375 -93.54299926757812,-109.08399963378906 -90.10099792480469,-111.63099670410156 C-86.65899658203125,-114.1780014038086 -85.93299865722656,-119.03199768066406 -88.4800033569336,-122.4739990234375z"></path></g></g><g opacity="1" transform="matrix(1,0,0,1,0.03700000047683716,0.006000000052154064)"><g opacity="1" transform="matrix(1,0,0,1,0,0)"><path stroke="url(#__lottie_element_1030)" stroke-linecap="round" stroke-linejoin="round" fill-opacity="0" stroke-opacity="1" stroke-width="5" d=" M-64.85099792480469,-105.24800109863281 C-75.2239990234375,-94.875 -92.04299926757812,-94.875 -102.41600036621094,-105.24800109863281 C-112.78900146484375,-115.62100219726562 -112.78900146484375,-132.44000244140625 -102.41600036621094,-142.81300354003906 C-92.04299926757812,-153.18600463867188 -75.2239990234375,-153.18600463867188 -64.85099792480469,-142.81300354003906 C-54.47800064086914,-132.44000244140625 -54.47800064086914,-115.62100219726562 -64.85099792480469,-105.24800109863281z"></path></g><g opacity="0.5" transform="matrix(1,0,0,1,0,0)"><path stroke="url(#__lottie_element_1031)" stroke-linecap="round" stroke-linejoin="round" fill-opacity="0" stroke-opacity="1" stroke-width="5" d=" M-106.15499877929688,-146.552001953125 C-93.71700286865234,-158.99000549316406 -73.55000305175781,-158.99000549316406 -61.11199951171875,-146.552001953125 C-48.67399978637695,-134.11399841308594 -48.67399978637695,-113.9469985961914 -61.11199951171875,-101.50900268554688 C-73.55000305175781,-89.07099914550781 -93.71700286865234,-89.07099914550781 -106.15499877929688,-101.50900268554688 C-118.59300231933594,-113.9469985961914 -118.59300231933594,-134.11399841308594 -106.15499877929688,-146.552001953125z"></path></g></g></g><g transform="matrix(0.9999599456787109,0.0002443363191559911,-0.000244355876930058,1.000040054321289,256.0415954589844,256.0057373046875)" opacity="1" style="display: block;"><g opacity="1" transform="matrix(1,0,0,1,0,0)"><path fill="url(#__lottie_element_1008)" fill-opacity="1" d=" M-11.494000434875488,-146.32400512695312 C-14.435999870300293,-130.50799560546875 3.3350000381469727,-99.39199829101562 48.67399978637695,-105.96299743652344 C74.45999908447266,-109.69999694824219 73.33899688720703,-142.96099853515625 68.85399627685547,-155.29299926757812 C64.36900329589844,-167.625 49.422000885009766,-187.4320068359375 29.614999771118164,-184.06900024414062 C2.9519999027252197,-179.54100036621094 -8.503999710083008,-162.3939971923828 -11.494000434875488,-146.32400512695312z"></path><path stroke-linecap="round" stroke-linejoin="round" fill-opacity="0" stroke="rgb(22,62,0)" stroke-opacity="1" stroke-width="7" d=" M-11.494000434875488,-146.32400512695312 C-14.435999870300293,-130.50799560546875 3.3350000381469727,-99.39199829101562 48.67399978637695,-105.96299743652344 C74.45999908447266,-109.69999694824219 73.33899688720703,-142.96099853515625 68.85399627685547,-155.29299926757812 C64.36900329589844,-167.625 49.422000885009766,-187.4320068359375 29.614999771118164,-184.06900024414062 C2.9519999027252197,-179.54100036621094 -8.503999710083008,-162.3939971923828 -11.494000434875488,-146.32400512695312z"></path><path stroke-linecap="round" stroke-linejoin="round" fill-opacity="0" stroke-dasharray=" 2 7" stroke-dashoffset="0" stroke="rgb(22,62,0)" stroke-opacity="1" stroke-width="7" d=" M-11.494000434875488,-146.32400512695312 C-14.435999870300293,-130.50799560546875 3.3350000381469727,-99.39199829101562 48.67399978637695,-105.96299743652344 C74.45999908447266,-109.69999694824219 73.33899688720703,-142.96099853515625 68.85399627685547,-155.29299926757812 C64.36900329589844,-167.625 49.422000885009766,-187.4320068359375 29.614999771118164,-184.06900024414062 C2.9519999027252197,-179.54100036621094 -8.503999710083008,-162.3939971923828 -11.494000434875488,-146.32400512695312z"></path></g></g><g transform="matrix(0.9999599456787109,0.0002443363191559911,-0.000244355876930058,1.000040054321289,267.5419616699219,224.0062713623047)" opacity="1" style="display: block;"><g opacity="1" transform="matrix(1,0,0,1,0,0)"><g opacity="1" transform="matrix(1,0,0,1,0,0)"><path fill="url(#__lottie_element_1019)" fill-opacity="1" d=" M-22.231000900268555,-77.29199981689453 C-1.4789999723434448,-80.50599670410156 11.859999656677246,-65.51000213623047 11.932999610900879,-50.34700012207031 C11.991000175476074,-38.301998138427734 3.677999973297119,-26.150999069213867 -15.9399995803833,-22.94300079345703 C-51.57099914550781,-17.115999221801758 -54.86800003051758,-72.23699951171875 -22.231000900268555,-77.29199981689453z"></path><path stroke-linecap="round" stroke-linejoin="round" fill-opacity="0" stroke="rgb(142,0,0)" stroke-opacity="1" stroke-width="7" d=" M-22.231000900268555,-77.29199981689453 C-1.4789999723434448,-80.50599670410156 11.859999656677246,-65.51000213623047 11.932999610900879,-50.34700012207031 C11.991000175476074,-38.301998138427734 3.677999973297119,-26.150999069213867 -15.9399995803833,-22.94300079345703 C-51.57099914550781,-17.115999221801758 -54.86800003051758,-72.23699951171875 -22.231000900268555,-77.29199981689453z"></path><path stroke-linecap="round" stroke-linejoin="round" fill-opacity="0" stroke-dasharray=" 2 7" stroke-dashoffset="0" stroke="rgb(142,0,0)" stroke-opacity="1" stroke-width="7" d=" M-22.231000900268555,-77.29199981689453 C-1.4789999723434448,-80.50599670410156 11.859999656677246,-65.51000213623047 11.932999610900879,-50.34700012207031 C11.991000175476074,-38.301998138427734 3.677999973297119,-26.150999069213867 -15.9399995803833,-22.94300079345703 C-51.57099914550781,-17.115999221801758 -54.86800003051758,-72.23699951171875 -22.231000900268555,-77.29199981689453z"></path></g></g></g><g transform="matrix(0.9910672903060913,0.14782722294330597,-0.14720620214939117,0.9870617985725403,364.04046630859375,244.22311401367188)" opacity="1" style="display: block;"><g opacity="1" transform="matrix(1,0,0,1,0,0)"><path fill="rgb(16,60,75)" fill-opacity="1" d=" M-89.47599792480469,-155.57200622558594 C-90.05799865722656,-155.4029998779297 -98.37300109863281,-153.031005859375 -98.9219970703125,-152.79800415039062 C-109.48200225830078,-148.31900024414062 -113.88400268554688,-132.23899841308594 -108.73400115966797,-115.6760025024414 C-103.54499816894531,-98.98600006103516 -90.53900146484375,-87.86000061035156 -79.1050033569336,-89.9520034790039 C-78.60299682617188,-90.04399871826172 -70.35399627685547,-92.33200073242188 -69.85800170898438,-92.47599792480469 C-58.084999084472656,-95.88700103759766 -52.93299865722656,-112.77799987792969 -58.349998474121094,-130.2010040283203 C-63.766998291015625,-147.62399291992188 -77.7030029296875,-158.98300170898438 -89.47599792480469,-155.57200622558594z"></path></g><g opacity="1" transform="matrix(1,0,0,1,0,0)"><g opacity="1" transform="matrix(1,0,0,1,0,0)"><path stroke="url(#__lottie_element_1011)" stroke-linecap="round" stroke-linejoin="round" fill-opacity="0" stroke-opacity="1" stroke-width="5" d=" M-78.5780029296875,-131.98500061035156 C-79.55500030517578,-128.78199768066406 -82.48999786376953,-127.93199920654297 -85.13300323486328,-130.08599853515625 C-87.7760009765625,-132.24000549316406 -89.1259994506836,-136.58399963378906 -88.14900207519531,-139.78700256347656 C-87.1719970703125,-142.99000549316406 -84.23699951171875,-143.83999633789062 -81.59400177001953,-141.68600463867188 C-78.95099639892578,-139.53199768066406 -77.60099792480469,-135.18800354003906 -78.5780029296875,-131.98500061035156z"></path></g></g><g opacity="1" transform="matrix(1,0,0,1,0,0)"><g opacity="1" transform="matrix(1,0,0,1,0,0)"><path stroke="url(#__lottie_element_1012)" stroke-linecap="round" stroke-linejoin="round" fill-opacity="0" stroke-opacity="1" stroke-width="5" d=" M-70.63099670410156,-126.96800231933594 C-73.43099975585938,-128.2169952392578 -75.91000366210938,-126.2760009765625 -76.16899871826172,-122.63200378417969 C-76.4280014038086,-118.98799896240234 -74.36900329589844,-115.02200317382812 -71.56900024414062,-113.77300262451172 C-68.76899719238281,-112.52400207519531 -66.29000091552734,-114.46499633789062 -66.03099822998047,-118.10900115966797 C-65.77200317382812,-121.75299835205078 -67.83100128173828,-125.71900177001953 -70.63099670410156,-126.96800231933594z"></path></g></g><g opacity="1" transform="matrix(1,0,0,1,0,0)"><g opacity="1" transform="matrix(1,0,0,1,0,0)"><path stroke="url(#__lottie_element_1013)" stroke-linecap="round" stroke-linejoin="round" fill-opacity="0" stroke-opacity="1" stroke-width="5" d=" M-82.21399688720703,-121.73699951171875 C-84.76100158691406,-124.4229965209961 -87.95999908447266,-124.21800231933594 -89.36000061035156,-121.27899932861328 C-90.76000213623047,-118.33999633789062 -89.83000183105469,-113.77999877929688 -87.28299713134766,-111.09400177001953 C-84.73600006103516,-108.40799713134766 -81.53700256347656,-108.61299896240234 -80.13700103759766,-111.552001953125 C-78.73699951171875,-114.49099731445312 -79.66699981689453,-119.0510025024414 -82.21399688720703,-121.73699951171875z"></path></g></g><g opacity="1" transform="matrix(1,0,0,1,0,0)"><g opacity="1" transform="matrix(1,0,0,1,0,0)"><path fill="rgb(255,255,255)" fill-opacity="1" d=" M-81.61499786376953,-132.25900268554688 C-82.35800170898438,-129.8249969482422 -84.58799743652344,-129.1790008544922 -86.59600067138672,-130.8159942626953 C-88.60399627685547,-132.4530029296875 -89.63099670410156,-135.75399780273438 -88.88800048828125,-138.18800354003906 C-88.1449966430664,-140.6219940185547 -85.91500091552734,-141.26800537109375 -83.90699768066406,-139.63099670410156 C-81.89900207519531,-137.99400329589844 -80.87200164794922,-134.6929931640625 -81.61499786376953,-132.25900268554688z"></path></g></g><g opacity="1" transform="matrix(1,0,0,1,0,0)"><g opacity="1" transform="matrix(1,0,0,1,0,0)"><path fill="rgb(255,255,255)" fill-opacity="1" d=" M-72.427001953125,-124.9729995727539 C-74.59500122070312,-125.94000244140625 -76.51499938964844,-124.43800354003906 -76.71600341796875,-121.61599731445312 C-76.91699981689453,-118.79399871826172 -75.3219985961914,-115.7229995727539 -73.15399932861328,-114.75599670410156 C-70.98600006103516,-113.78900146484375 -69.06600189208984,-115.29100036621094 -68.86499786376953,-118.11299896240234 C-68.66400146484375,-120.93499755859375 -70.25900268554688,-124.00599670410156 -72.427001953125,-124.9729995727539z"></path></g></g><g opacity="1" transform="matrix(1,0,0,1,0,0)"><g opacity="1" transform="matrix(1,0,0,1,0,0)"><path fill="rgb(255,255,255)" fill-opacity="1" d=" M-84.46299743652344,-119.89600372314453 C-86.43000030517578,-121.97000122070312 -88.9020004272461,-121.81199645996094 -89.98300170898438,-119.54199981689453 C-91.06400299072266,-117.27200317382812 -90.34500122070312,-113.75 -88.37799835205078,-111.6760025024414 C-86.41100311279297,-109.60199737548828 -83.94000244140625,-109.76000213623047 -82.85900115966797,-112.02999877929688 C-81.77799987792969,-114.30000305175781 -82.49600219726562,-117.8219985961914 -84.46299743652344,-119.89600372314453z"></path></g></g><g opacity="1" transform="matrix(1,0,0,1,0.03700000047683716,0.006000000052154064)"><g opacity="1" transform="matrix(1,0,0,1,0,0)"><path stroke="url(#__lottie_element_1014)" stroke-linecap="round" stroke-linejoin="round" fill-opacity="0" stroke-opacity="1" stroke-width="5" d=" M-62.766998291015625,-110.24600219726562 C-66.22000122070312,-98.92500305175781 -76.59200286865234,-95.9209976196289 -85.93199920654297,-103.53399658203125 C-95.27200317382812,-111.14700317382812 -100.04499816894531,-126.49600219726562 -96.59200286865234,-137.81700134277344 C-93.13899993896484,-149.13800048828125 -82.76699829101562,-152.14199829101562 -73.427001953125,-144.5290069580078 C-64.08699798583984,-136.91600036621094 -59.31399917602539,-121.56700134277344 -62.766998291015625,-110.24600219726562z"></path></g><g opacity="0.5" transform="matrix(1,0,0,1,0,0)"><path stroke="url(#__lottie_element_1015)" stroke-linecap="round" stroke-linejoin="round" fill-opacity="0" stroke-opacity="1" stroke-width="5" d=" M-99.95800018310547,-140.56100463867188 C-95.81700134277344,-154.13499450683594 -83.38200378417969,-157.73899841308594 -72.18199920654297,-148.61000061035156 C-60.981998443603516,-139.4810028076172 -55.2599983215332,-121.07599639892578 -59.4010009765625,-107.50199890136719 C-63.54199981689453,-93.9280014038086 -75.97699737548828,-90.3239974975586 -87.177001953125,-99.4530029296875 C-98.37699890136719,-108.58200073242188 -104.0989990234375,-126.98699951171875 -99.95800018310547,-140.56100463867188z"></path></g></g></g><g transform="matrix(0.9999599456787109,0.0002443363191559911,-0.000244355876930058,1.000040054321289,256.0398864746094,256.005859375)" opacity="1" style="display: block;"><g opacity="1" transform="matrix(1,0,0,1,0,0)"><g opacity="1" transform="matrix(1,0,0,1,0,0)"><path fill="rgb(86,161,45)" fill-opacity="1" d=" M-152.9010009765625,146.94000244140625 C-161.19000244140625,165.43099975585938 -180.41400146484375,210.75399780273438 -181.23599243164062,218.33999633789062 C-182.05799865722656,225.92599487304688 -141.31199645996094,254.7760009765625 -131.4429931640625,233.16000366210938 C-121.5739974975586,211.54400634765625 -101.27999877929688,171.8000030517578 -98.20700073242188,160.10499572753906 C-87.08399963378906,117.76899719238281 -138.218994140625,114.18800354003906 -152.9010009765625,146.94000244140625z"></path><path stroke-linecap="round" stroke-linejoin="round" fill-opacity="0" stroke="rgb(22,62,0)" stroke-opacity="1" stroke-width="7" d=" M-152.9010009765625,146.94000244140625 C-161.19000244140625,165.43099975585938 -180.41400146484375,210.75399780273438 -181.23599243164062,218.33999633789062 C-182.05799865722656,225.92599487304688 -141.31199645996094,254.7760009765625 -131.4429931640625,233.16000366210938 C-121.5739974975586,211.54400634765625 -101.27999877929688,171.8000030517578 -98.20700073242188,160.10499572753906 C-87.08399963378906,117.76899719238281 -138.218994140625,114.18800354003906 -152.9010009765625,146.94000244140625z"></path><path stroke-linecap="round" stroke-linejoin="round" fill-opacity="0" stroke-dasharray=" 2 7" stroke-dashoffset="0" stroke="rgb(22,62,0)" stroke-opacity="1" stroke-width="7" d=" M-152.9010009765625,146.94000244140625 C-161.19000244140625,165.43099975585938 -180.41400146484375,210.75399780273438 -181.23599243164062,218.33999633789062 C-182.05799865722656,225.92599487304688 -141.31199645996094,254.7760009765625 -131.4429931640625,233.16000366210938 C-121.5739974975586,211.54400634765625 -101.27999877929688,171.8000030517578 -98.20700073242188,160.10499572753906 C-87.08399963378906,117.76899719238281 -138.218994140625,114.18800354003906 -152.9010009765625,146.94000244140625z"></path></g><g opacity="1" transform="matrix(1,0,0,1,0,0)"><path fill="rgb(86,161,45)" fill-opacity="1" d=" M-137.00100708007812,188.51300048828125 C-140.76600646972656,179.9290008544922 -145.8179931640625,171.53599548339844 -151.63999938964844,164.23699951171875 C-165.656005859375,146.6649932861328 -184.13600158691406,135.4340057373047 -199.8769989013672,143.12899780273438 C-221.9250030517578,153.90699768066406 -221.6199951171875,188.6020050048828 -207.18699645996094,215.03599548339844 C-196.01699829101562,235.4929962158203 -176.38600158691406,251.00399780273438 -152.10499572753906,246.6529998779297 C-139.06100463867188,244.3159942626953 -132.44900512695312,236.25999450683594 -130.51199340820312,225.5590057373047"></path><path stroke-linecap="round" stroke-linejoin="round" fill-opacity="0" stroke="rgb(22,62,0)" stroke-opacity="1" stroke-width="7" d=" M-137.00100708007812,188.51300048828125 C-140.76600646972656,179.9290008544922 -145.8179931640625,171.53599548339844 -151.63999938964844,164.23699951171875 C-165.656005859375,146.6649932861328 -184.13600158691406,135.4340057373047 -199.8769989013672,143.12899780273438 C-221.9250030517578,153.90699768066406 -221.6199951171875,188.6020050048828 -207.18699645996094,215.03599548339844 C-196.01699829101562,235.4929962158203 -176.38600158691406,251.00399780273438 -152.10499572753906,246.6529998779297 C-139.06100463867188,244.3159942626953 -132.44900512695312,236.25999450683594 -130.51199340820312,225.5590057373047"></path><path stroke-linecap="round" stroke-linejoin="round" fill-opacity="0" stroke-dasharray=" 2 7" stroke-dashoffset="0" stroke="rgb(22,62,0)" stroke-opacity="1" stroke-width="7" d=" M-137.00100708007812,188.51300048828125 C-140.76600646972656,179.9290008544922 -145.8179931640625,171.53599548339844 -151.63999938964844,164.23699951171875 C-165.656005859375,146.6649932861328 -184.13600158691406,135.4340057373047 -199.8769989013672,143.12899780273438 C-221.9250030517578,153.90699768066406 -221.6199951171875,188.6020050048828 -207.18699645996094,215.03599548339844 C-196.01699829101562,235.4929962158203 -176.38600158691406,251.00399780273438 -152.10499572753906,246.6529998779297 C-139.06100463867188,244.3159942626953 -132.44900512695312,236.25999450683594 -130.51199340820312,225.5590057373047"></path></g><g opacity="1" transform="matrix(1,0,0,1,0,0)"><path stroke-linecap="round" stroke-linejoin="round" fill-opacity="0" stroke="rgb(22,62,0)" stroke-opacity="1" stroke-width="7" d=" M-203.30999755859375,221.4219970703125 C-191.7570037841797,238.58799743652344 -173.78500366210938,250.53799438476562 -152.10499572753906,246.6529998779297 C-139.06100463867188,244.3159942626953 -132.44900512695312,236.25999450683594 -130.51199340820312,225.5590057373047"></path><path stroke-linecap="round" stroke-linejoin="round" fill-opacity="0" stroke-dasharray=" 2 7" stroke-dashoffset="0" stroke="rgb(22,62,0)" stroke-opacity="1" stroke-width="7" d=" M-203.30999755859375,221.4219970703125 C-191.7570037841797,238.58799743652344 -173.78500366210938,250.53799438476562 -152.10499572753906,246.6529998779297 C-139.06100463867188,244.3159942626953 -132.44900512695312,236.25999450683594 -130.51199340820312,225.5590057373047"></path></g><g opacity="1" transform="matrix(1,0,0,1,0,0)"><path stroke-linecap="round" stroke-linejoin="round" fill-opacity="0" stroke="rgb(22,62,0)" stroke-opacity="1" stroke-width="7" d=" M-130.51199340820312,225.5590057373047 C-132.44900512695312,236.25999450683594 -139.06100463867188,244.3159942626953 -152.10499572753906,246.6529998779297 C-176.38600158691406,251.00399780273438 -196.01699829101562,235.4929962158203 -207.18699645996094,215.03599548339844 C-221.6199951171875,188.6020050048828 -221.9250030517578,153.90699768066406 -199.8769989013672,143.12899780273438 C-184.13600158691406,135.4340057373047 -165.656005859375,146.6649932861328 -151.63999938964844,164.23699951171875 C-145.8179931640625,171.53599548339844 -140.76600646972656,179.9290008544922 -137.00100708007812,188.51300048828125"></path><path stroke-linecap="round" stroke-linejoin="round" fill-opacity="0" stroke-dasharray=" 10 1000" stroke-dashoffset="0" stroke="rgb(22,62,0)" stroke-opacity="1" stroke-width="7" d=" M-130.51199340820312,225.5590057373047 C-132.44900512695312,236.25999450683594 -139.06100463867188,244.3159942626953 -152.10499572753906,246.6529998779297 C-176.38600158691406,251.00399780273438 -196.01699829101562,235.4929962158203 -207.18699645996094,215.03599548339844 C-221.6199951171875,188.6020050048828 -221.9250030517578,153.90699768066406 -199.8769989013672,143.12899780273438 C-184.13600158691406,135.4340057373047 -165.656005859375,146.6649932861328 -151.63999938964844,164.23699951171875 C-145.8179931640625,171.53599548339844 -140.76600646972656,179.9290008544922 -137.00100708007812,188.51300048828125"></path></g></g></g><g transform="matrix(0.9999599456787109,0.0002443363191559911,-0.000244355876930058,1.000040054321289,246.0401611328125,256.0056457519531)" opacity="1" style="display: block;"><g opacity="1" transform="matrix(1,0,0,1,0,0)"><g opacity="1" transform="matrix(1,0,0,1,0,0)"><path fill="url(#__lottie_element_992)" fill-opacity="1" d=" M26.190000534057617,169.47900390625 C-62.6510009765625,149.04400634765625 -106.74199676513672,58.12200164794922 -79.60900115966797,16.273000717163086 C-52.47600173950195,-25.576000213623047 -3.2699999809265137,-4.421999931335449 7.767000198364258,10.293999671936035 C34.439998626708984,-40.75199890136719 75.75599670410156,-24.618999481201172 90.47200012207031,4.813000202178955 C105.18800354003906,34.244998931884766 108.0479965209961,111.53399658203125 26.190000534057617,169.47900390625z"></path><path fill="url(#__lottie_element_993)" fill-opacity="1" d=" M26.190000534057617,169.47900390625 C-62.6510009765625,149.04400634765625 -106.74199676513672,58.12200164794922 -79.60900115966797,16.273000717163086 C-52.47600173950195,-25.576000213623047 -3.2699999809265137,-4.421999931335449 7.767000198364258,10.293999671936035 C34.439998626708984,-40.75199890136719 75.75599670410156,-24.618999481201172 90.47200012207031,4.813000202178955 C105.18800354003906,34.244998931884766 108.0479965209961,111.53399658203125 26.190000534057617,169.47900390625z"></path><path stroke="url(#__lottie_element_994)" stroke-linecap="round" stroke-linejoin="round" fill-opacity="0" stroke-opacity="1" stroke-width="7" d=" M26.190000534057617,169.47900390625 C-62.6510009765625,149.04400634765625 -106.74199676513672,58.12200164794922 -79.60900115966797,16.273000717163086 C-52.47600173950195,-25.576000213623047 -3.2699999809265137,-4.421999931335449 7.767000198364258,10.293999671936035 C34.439998626708984,-40.75199890136719 75.75599670410156,-24.618999481201172 90.47200012207031,4.813000202178955 C105.18800354003906,34.244998931884766 108.0479965209961,111.53399658203125 26.190000534057617,169.47900390625z"></path><path stroke="url(#__lottie_element_995)" mask="url(#__lottie_element_997)" stroke-linecap="round" stroke-linejoin="round" fill-opacity="0" stroke-opacity="1" stroke-width="7" d="M0 0 M26.190000534057617,169.47900390625 C-62.6510009765625,149.04400634765625 -106.74199676513672,58.12200164794922 -79.60900115966797,16.273000717163086 C-52.47600173950195,-25.576000213623047 -3.2699999809265137,-4.421999931335449 7.767000198364258,10.293999671936035 C34.439998626708984,-40.75199890136719 75.75599670410156,-24.618999481201172 90.47200012207031,4.813000202178955 C105.18800354003906,34.244998931884766 108.0479965209961,111.53399658203125 26.190000534057617,169.47900390625z"></path></g></g></g><g transform="matrix(0.9999699592590332,0.00024433876387774944,-0.00024435343220829964,1.0000300407409668,256.041015625,256.006591796875)" opacity="1" style="display: block;"><g opacity="1" transform="matrix(1,0,0,1,0,0)"><g opacity="1" transform="matrix(1,0,0,1,0,0)"><path stroke-linecap="round" stroke-linejoin="round" fill-opacity="0" stroke-dasharray=" 2 7" stroke-dashoffset="0" stroke="rgb(21,61,0)" stroke-opacity="1" stroke-width="7" d=" M-164.13699340820312,70.56600189208984 C-111.88899993896484,137.46299743652344 -5.335999965667725,142.53500366210938 51.51100158691406,111.89600372314453 C81.71700286865234,95.61499786376953 65.68800354003906,65.93900299072266 44.18600082397461,75.76100158691406 C5.619999885559082,93.37799835205078 -94.19999694824219,92.25399780273438 -133.91099548339844,39.92399978637695 C-158.2100067138672,7.9029998779296875 -178.927001953125,51.630001068115234 -164.13699340820312,70.56600189208984z"></path><path fill="rgb(86,161,45)" fill-opacity="1" d=" M-164.13699340820312,70.56600189208984 C-111.88899993896484,137.46299743652344 -5.335999965667725,142.53500366210938 51.51100158691406,111.89600372314453 C81.71700286865234,95.61499786376953 65.68800354003906,65.93900299072266 44.18600082397461,75.76100158691406 C5.619999885559082,93.37799835205078 -94.19999694824219,92.25399780273438 -133.91099548339844,39.92399978637695 C-158.2100067138672,7.9029998779296875 -178.927001953125,51.630001068115234 -164.13699340820312,70.56600189208984z"></path><path stroke-linecap="round" stroke-linejoin="round" fill-opacity="0" stroke="rgb(21,61,0)" stroke-opacity="1" stroke-width="7" d=" M-164.13699340820312,70.56600189208984 C-111.88899993896484,137.46299743652344 -5.335999965667725,142.53500366210938 51.51100158691406,111.89600372314453 C81.71700286865234,95.61499786376953 65.68800354003906,65.93900299072266 44.18600082397461,75.76100158691406 C5.619999885559082,93.37799835205078 -94.19999694824219,92.25399780273438 -133.91099548339844,39.92399978637695 C-158.2100067138672,7.9029998779296875 -178.927001953125,51.630001068115234 -164.13699340820312,70.56600189208984z"></path><path stroke-linecap="round" stroke-linejoin="round" fill-opacity="0" stroke-dasharray=" 2 7" stroke-dashoffset="0" stroke="rgb(21,61,0)" stroke-opacity="1" stroke-width="7" d=" M-164.13699340820312,70.56600189208984 C-111.88899993896484,137.46299743652344 -5.335999965667725,142.53500366210938 51.51100158691406,111.89600372314453 C81.71700286865234,95.61499786376953 65.68800354003906,65.93900299072266 44.18600082397461,75.76100158691406 C5.619999885559082,93.37799835205078 -94.19999694824219,92.25399780273438 -133.91099548339844,39.92399978637695 C-158.2100067138672,7.9029998779296875 -178.927001953125,51.630001068115234 -164.13699340820312,70.56600189208984z"></path></g></g></g><g transform="matrix(0.9999599456787109,0.0002443363191559911,-0.000244355876930058,1.000040054321289,256.04058837890625,256.0063781738281)" opacity="1" style="display: block;"><g opacity="1" transform="matrix(1,0,0,1,0,0)"><g opacity="1" transform="matrix(1,0,0,1,0,0)"><path fill="rgb(86,161,45)" fill-opacity="1" d=" M94.66200256347656,-3.319000005722046 C108.18800354003906,36.08399963378906 8.213000297546387,60.470001220703125 -13.76099967956543,60.470001220703125 C-35.73500061035156,60.470001220703125 -41.10599899291992,95.13999938964844 -5.460000038146973,93.67500305175781 C30.18600082397461,92.20999908447266 92.59100341796875,60.428001403808594 111.63500213623047,44.31399917602539 C130.6790008544922,28.200000762939453 126.83499908447266,3.4179999828338623 126.83499908447266,3.4179999828338623"></path><path stroke-linecap="round" stroke-linejoin="round" fill-opacity="0" stroke="rgb(21,61,0)" stroke-opacity="1" stroke-width="7" d=" M94.66200256347656,-3.319000005722046 C108.18800354003906,36.08399963378906 8.213000297546387,60.470001220703125 -13.76099967956543,60.470001220703125 C-35.73500061035156,60.470001220703125 -41.10599899291992,95.13999938964844 -5.460000038146973,93.67500305175781 C30.18600082397461,92.20999908447266 92.59100341796875,60.428001403808594 111.63500213623047,44.31399917602539 C130.6790008544922,28.200000762939453 126.83499908447266,3.4179999828338623 126.83499908447266,3.4179999828338623"></path><path stroke-linecap="round" stroke-linejoin="round" fill-opacity="0" stroke-dasharray=" 2 7" stroke-dashoffset="0" stroke="rgb(21,61,0)" stroke-opacity="1" stroke-width="7" d=" M94.66200256347656,-3.319000005722046 C108.18800354003906,36.08399963378906 8.213000297546387,60.470001220703125 -13.76099967956543,60.470001220703125 C-35.73500061035156,60.470001220703125 -41.10599899291992,95.13999938964844 -5.460000038146973,93.67500305175781 C30.18600082397461,92.20999908447266 92.59100341796875,60.428001403808594 111.63500213623047,44.31399917602539 C130.6790008544922,28.200000762939453 126.83499908447266,3.4179999828338623 126.83499908447266,3.4179999828338623"></path></g><g opacity="1" transform="matrix(1,0,0,1,0,0)"><path stroke-linecap="round" stroke-linejoin="round" fill-opacity="0" stroke-dasharray=" 10 1000" stroke-dashoffset="0" stroke="rgb(21,61,0)" stroke-opacity="1" stroke-width="7" d=" M126.83499908447266,3.4179999828338623 C126.83499908447266,3.4179999828338623 130.6790008544922,28.200000762939453 111.63500213623047,44.31399917602539 C92.59100341796875,60.428001403808594 30.18600082397461,92.20999908447266 -5.460000038146973,93.67500305175781 C-41.10599899291992,95.13999938964844 -35.73500061035156,60.470001220703125 -13.76099967956543,60.470001220703125 C8.213000297546387,60.470001220703125 108.18800354003906,36.08399963378906 94.66200256347656,-3.319000005722046"></path></g></g></g></g></svg>